<?xml version="1.0" encoding="utf-8"?>
<!-- Generator: Adobe Illustrator 24.0.2, SVG Export Plug-In . SVG Version: 6.00 Build 0)  -->
<!DOCTYPE svg PUBLIC "-//W3C//DTD SVG 1.1//EN" "http://www.w3.org/Graphics/SVG/1.1/DTD/svg11.dtd" [
	<!ENTITY ns_extend "http://ns.adobe.com/Extensibility/1.0/">
	<!ENTITY ns_ai "http://ns.adobe.com/AdobeIllustrator/10.0/">
	<!ENTITY ns_graphs "http://ns.adobe.com/Graphs/1.0/">
	<!ENTITY ns_vars "http://ns.adobe.com/Variables/1.0/">
	<!ENTITY ns_imrep "http://ns.adobe.com/ImageReplacement/1.0/">
	<!ENTITY ns_sfw "http://ns.adobe.com/SaveForWeb/1.0/">
	<!ENTITY ns_custom "http://ns.adobe.com/GenericCustomNamespace/1.0/">
	<!ENTITY ns_adobe_xpath "http://ns.adobe.com/XPath/1.0/">
]>
<svg version="1.1" id="Capa_1" xmlns:x="&ns_extend;" xmlns:i="&ns_ai;" xmlns:graph="&ns_graphs;"
	 xmlns="http://www.w3.org/2000/svg" xmlns:xlink="http://www.w3.org/1999/xlink" x="0px" y="0px" viewBox="0 0 167.3 57.8"
	 style="enable-background:new 0 0 167.3 57.8;" xml:space="preserve">
<style type="text/css">
	.st0{fill:#222222;}
	.st1{fill:#FFFFFF;}
</style>
<metadata>
	<sfw  xmlns="&ns_sfw;">
		<slices></slices>
		<sliceSourceBounds  bottomLeftOrigin="true" height="51.8" width="161.8" x="-31.4" y="24.6"></sliceSourceBounds>
	</sfw>
</metadata>
<path class="st0" d="M141.6,54.9H27.8c-13.3,0-24-10.7-24-24v-3.8c0-13.3,10.7-24,24-24h113.8c13.3,0,24,10.7,24,24v3.8
	C165.6,44.1,154.9,54.9,141.6,54.9z"/>
<g>
	<path class="st1" d="M34.9,28c0,0.7-0.1,1.3-0.3,1.9s-0.5,1.1-1,1.5c-0.4,0.4-0.9,0.8-1.5,1c-0.6,0.2-1.2,0.4-1.9,0.4
		c-0.7,0-1.3-0.1-1.9-0.4c-0.6-0.2-1.1-0.6-1.5-1c-0.4-0.4-0.7-0.9-1-1.5s-0.3-1.2-0.3-1.9s0.1-1.3,0.3-1.9c0.2-0.6,0.5-1.1,1-1.5
		s0.9-0.8,1.5-1c0.6-0.2,1.2-0.4,1.9-0.4c0.5,0,0.9,0.1,1.3,0.2s0.8,0.3,1.1,0.5s0.7,0.4,0.9,0.7c0.3,0.3,0.5,0.6,0.7,1
		c0.2,0.4,0.3,0.7,0.4,1.1C34.8,27.2,34.9,27.6,34.9,28z M33.1,28c0-0.5-0.1-1-0.2-1.4c-0.1-0.4-0.3-0.7-0.6-1s-0.6-0.5-0.9-0.6
		c-0.4-0.2-0.8-0.2-1.2-0.2s-0.9,0.1-1.2,0.2c-0.4,0.1-0.7,0.4-0.9,0.6c-0.3,0.3-0.5,0.6-0.6,1c-0.1,0.4-0.2,0.9-0.2,1.4
		c0,0.5,0.1,1,0.2,1.4c0.1,0.4,0.3,0.7,0.6,1c0.3,0.3,0.6,0.5,0.9,0.6c0.4,0.1,0.8,0.2,1.2,0.2s0.9-0.1,1.2-0.2s0.7-0.4,0.9-0.6
		s0.4-0.6,0.6-1C33,29,33.1,28.6,33.1,28z"/>
	<path class="st1" d="M37.6,26.9c0.3-0.3,0.6-0.5,0.9-0.7c0.3-0.2,0.7-0.2,1.1-0.2c0.4,0,0.7,0.1,1,0.2c0.3,0.1,0.6,0.4,0.8,0.6
		c0.2,0.3,0.4,0.6,0.5,1c0.1,0.4,0.2,0.8,0.2,1.3c0,0.5-0.1,1-0.2,1.5s-0.3,0.8-0.6,1.1s-0.5,0.6-0.9,0.7c-0.3,0.2-0.7,0.3-1.2,0.3
		c-0.2,0-0.4,0-0.6-0.1c-0.2,0-0.3-0.1-0.5-0.2s-0.3-0.2-0.4-0.3c-0.1-0.1-0.2-0.2-0.3-0.3l-0.1,0.4c0,0.1-0.1,0.2-0.1,0.2
		s-0.1,0.1-0.3,0.1h-1v-9.5h1.6V26.9z M37.6,31c0.2,0.2,0.4,0.4,0.6,0.5s0.4,0.1,0.7,0.1c0.2,0,0.5,0,0.7-0.1s0.4-0.2,0.5-0.4
		c0.1-0.2,0.2-0.4,0.3-0.7s0.1-0.6,0.1-1c0-0.7-0.1-1.2-0.4-1.6s-0.6-0.5-1-0.5c-0.3,0-0.6,0.1-0.8,0.2c-0.2,0.1-0.4,0.3-0.6,0.6V31
		z"/>
	<path class="st1" d="M45.4,32.8c-0.6,0-1-0.2-1.3-0.5s-0.5-0.8-0.5-1.3v-3.7H43c-0.1,0-0.2,0-0.2-0.1c-0.1-0.1-0.1-0.1-0.1-0.3
		v-0.6l1.1-0.2l0.3-1.8c0-0.1,0.1-0.2,0.1-0.2c0.1,0,0.1-0.1,0.2-0.1h0.8v2.1H47v1.1h-1.8v3.6c0,0.2,0.1,0.4,0.2,0.5
		c0.1,0.1,0.2,0.2,0.4,0.2c0.1,0,0.2,0,0.2,0s0.1,0,0.2-0.1s0.1,0,0.1-0.1c0,0,0.1,0,0.1,0c0,0,0.1,0,0.1,0c0,0,0.1,0.1,0.1,0.1
		l0.5,0.8c-0.2,0.2-0.5,0.3-0.8,0.4C46.1,32.7,45.8,32.8,45.4,32.8z"/>
	<path class="st1" d="M49.2,29.6c0,0.3,0.1,0.6,0.2,0.9c0.1,0.2,0.2,0.4,0.4,0.6c0.2,0.2,0.3,0.3,0.5,0.4c0.2,0.1,0.4,0.1,0.7,0.1
		s0.5,0,0.7-0.1c0.2-0.1,0.3-0.1,0.5-0.2c0.1-0.1,0.3-0.1,0.4-0.2c0.1-0.1,0.2-0.1,0.3-0.1c0.1,0,0.2,0,0.3,0.1l0.5,0.6
		c-0.2,0.2-0.4,0.4-0.6,0.5c-0.2,0.1-0.4,0.3-0.7,0.3c-0.2,0.1-0.5,0.1-0.7,0.2s-0.5,0.1-0.7,0.1c-0.5,0-0.9-0.1-1.3-0.2
		c-0.4-0.2-0.7-0.4-1-0.7c-0.3-0.3-0.5-0.7-0.7-1.1s-0.3-0.9-0.3-1.5c0-0.5,0.1-0.9,0.2-1.3c0.1-0.4,0.4-0.7,0.6-1
		c0.3-0.3,0.6-0.5,1-0.7c0.4-0.2,0.8-0.3,1.3-0.3c0.4,0,0.8,0.1,1.1,0.2s0.7,0.3,0.9,0.6c0.3,0.3,0.5,0.6,0.6,0.9s0.2,0.8,0.2,1.3
		c0,0.2,0,0.4-0.1,0.5c-0.1,0.1-0.1,0.1-0.3,0.1H49.2z M52.2,28.6c0-0.2,0-0.4-0.1-0.6c-0.1-0.2-0.1-0.3-0.3-0.5
		c-0.1-0.1-0.3-0.2-0.4-0.3c-0.2-0.1-0.4-0.1-0.6-0.1c-0.5,0-0.8,0.1-1.1,0.4c-0.3,0.3-0.4,0.6-0.5,1.1H52.2z"/>
	<path class="st1" d="M56.3,26.9c0.1-0.1,0.3-0.3,0.4-0.4c0.1-0.1,0.3-0.2,0.5-0.3c0.2-0.1,0.3-0.1,0.5-0.2c0.2,0,0.4-0.1,0.6-0.1
		c0.4,0,0.7,0.1,1,0.2s0.5,0.3,0.7,0.5c0.2,0.2,0.3,0.5,0.4,0.8c0.1,0.3,0.1,0.6,0.1,1v4.2H59v-4.2c0-0.4-0.1-0.7-0.3-0.9
		c-0.2-0.2-0.5-0.3-0.8-0.3c-0.3,0-0.5,0.1-0.8,0.2c-0.2,0.1-0.5,0.3-0.7,0.5v4.8h-1.6v-6.6h1c0.2,0,0.3,0.1,0.4,0.3L56.3,26.9z"/>
	<path class="st1" d="M63.3,29.6c0,0.3,0.1,0.6,0.2,0.9c0.1,0.2,0.2,0.4,0.4,0.6c0.2,0.2,0.3,0.3,0.5,0.4c0.2,0.1,0.4,0.1,0.7,0.1
		s0.5,0,0.7-0.1c0.2-0.1,0.3-0.1,0.5-0.2c0.1-0.1,0.3-0.1,0.4-0.2c0.1-0.1,0.2-0.1,0.3-0.1c0.1,0,0.2,0,0.3,0.1l0.5,0.6
		c-0.2,0.2-0.4,0.4-0.6,0.5c-0.2,0.1-0.4,0.3-0.7,0.3c-0.2,0.1-0.5,0.1-0.7,0.2s-0.5,0.1-0.7,0.1c-0.5,0-0.9-0.1-1.3-0.2
		c-0.4-0.2-0.7-0.4-1-0.7c-0.3-0.3-0.5-0.7-0.7-1.1s-0.3-0.9-0.3-1.5c0-0.5,0.1-0.9,0.2-1.3c0.1-0.4,0.4-0.7,0.6-1
		c0.3-0.3,0.6-0.5,1-0.7c0.4-0.2,0.8-0.3,1.3-0.3c0.4,0,0.8,0.1,1.1,0.2s0.7,0.3,0.9,0.6c0.3,0.3,0.5,0.6,0.6,0.9s0.2,0.8,0.2,1.3
		c0,0.2,0,0.4-0.1,0.5c-0.1,0.1-0.1,0.1-0.3,0.1H63.3z M66.3,28.6c0-0.2,0-0.4-0.1-0.6c-0.1-0.2-0.1-0.3-0.3-0.5
		c-0.1-0.1-0.3-0.2-0.4-0.3c-0.2-0.1-0.4-0.1-0.6-0.1c-0.5,0-0.8,0.1-1.1,0.4c-0.3,0.3-0.4,0.6-0.5,1.1H66.3z"/>
	<path class="st1" d="M70.4,27.2c0.2-0.4,0.4-0.7,0.7-0.9c0.3-0.2,0.6-0.3,1-0.3c0.3,0,0.5,0.1,0.7,0.2l-0.1,1.2
		c0,0.1-0.1,0.1-0.1,0.2c0,0-0.1,0-0.2,0c-0.1,0-0.2,0-0.3,0c-0.1,0-0.2,0-0.4,0c-0.2,0-0.3,0-0.5,0.1c-0.1,0.1-0.3,0.1-0.4,0.2
		c-0.1,0.1-0.2,0.2-0.3,0.3s-0.2,0.3-0.2,0.5v4.1h-1.6v-6.6h0.9c0.2,0,0.3,0,0.3,0.1c0.1,0.1,0.1,0.2,0.1,0.3L70.4,27.2z"/>
	<path class="st1" d="M86.2,34.5h-1.4c-0.2,0-0.4,0-0.6-0.1c-0.2-0.1-0.3-0.2-0.5-0.3l-1.4-1.5c-0.2,0.1-0.4,0.1-0.7,0.1
		c-0.2,0-0.5,0-0.7,0c-0.7,0-1.3-0.1-1.9-0.4c-0.6-0.2-1.1-0.6-1.5-1c-0.4-0.4-0.7-0.9-1-1.5s-0.3-1.2-0.3-1.9s0.1-1.3,0.3-1.9
		c0.2-0.6,0.5-1.1,1-1.5s0.9-0.8,1.5-1s1.2-0.4,1.9-0.4c0.5,0,0.9,0.1,1.3,0.2s0.8,0.3,1.1,0.5s0.7,0.4,0.9,0.7
		c0.3,0.3,0.5,0.6,0.7,1c0.2,0.4,0.3,0.7,0.4,1.1c0.1,0.4,0.2,0.8,0.2,1.3c0,0.4,0,0.8-0.1,1.2c-0.1,0.4-0.2,0.7-0.4,1.1
		c-0.2,0.3-0.4,0.6-0.6,0.9c-0.2,0.3-0.5,0.5-0.8,0.7L86.2,34.5z M78,28c0,0.5,0.1,1,0.2,1.4c0.1,0.4,0.3,0.7,0.6,1
		c0.3,0.3,0.6,0.5,0.9,0.6c0.4,0.1,0.8,0.2,1.2,0.2c0.5,0,0.9-0.1,1.2-0.2s0.7-0.4,0.9-0.6s0.4-0.6,0.6-1c0.1-0.4,0.2-0.9,0.2-1.4
		c0-0.5-0.1-1-0.2-1.4c-0.1-0.4-0.3-0.7-0.6-1s-0.6-0.5-0.9-0.6c-0.4-0.2-0.8-0.2-1.2-0.2c-0.5,0-0.9,0.1-1.2,0.2
		c-0.4,0.1-0.7,0.4-0.9,0.6c-0.3,0.3-0.5,0.6-0.6,1C78.1,27.1,78,27.5,78,28z"/>
	<path class="st1" d="M94.4,32.7h-1.6c-0.3,0-0.5-0.1-0.6-0.3l-2-3c-0.1-0.1-0.2-0.2-0.2-0.2s-0.2-0.1-0.4-0.1h-0.7v3.6h-1.7v-9.3
		H90c0.6,0,1.2,0.1,1.6,0.2s0.8,0.3,1.1,0.5c0.3,0.2,0.5,0.5,0.6,0.8c0.1,0.3,0.2,0.7,0.2,1.1c0,0.3,0,0.6-0.1,0.9
		c-0.1,0.3-0.2,0.5-0.4,0.8c-0.2,0.2-0.4,0.4-0.6,0.6c-0.3,0.2-0.5,0.3-0.9,0.4c0.1,0.1,0.2,0.1,0.3,0.2c0.1,0.1,0.2,0.2,0.3,0.3
		L94.4,32.7z M90,27.8c0.3,0,0.6,0,0.9-0.1c0.2-0.1,0.4-0.2,0.6-0.3c0.2-0.1,0.3-0.3,0.4-0.5c0.1-0.2,0.1-0.4,0.1-0.6
		c0-0.5-0.2-0.8-0.5-1.1c-0.3-0.3-0.8-0.4-1.4-0.4h-1.1v3.1H90z"/>
</g>
<g>
	<g>
		<path class="st1" d="M119.8,13.3c0.1,0.1,0.1,0.1,0.2,0.2c0.3,0.3,0.2,0.9-0.2,1c-0.1,0-0.3,0-0.4,0c-1.8,0-3.5,0-5.3,0
			c-0.1,0-0.2,0-0.4,0c0,0.1,0,0.2,0,0.4c0,1.8,0,3.5,0,5.3c0,0.1,0,0.2,0,0.4c-0.1,0.3-0.2,0.4-0.5,0.5c-0.2,0-0.4,0-0.6-0.2
			c0-0.1-0.1-0.1-0.1-0.2c0-2.4,0-4.8,0-7.3C115,13.3,117.4,13.3,119.8,13.3z"/>
		<path class="st1" d="M143.4,13.3c0.3,0.2,0.4,0.5,0.4,0.9c0,2,0,4,0,6c0,0,0,0.1,0,0.1c0,0.5-0.2,0.8-0.6,0.8
			c-0.4,0-0.6-0.3-0.6-0.8c0-1.8,0-3.6,0-5.3c0-0.1,0-0.2,0-0.4c-0.1,0-0.2,0-0.4,0c-1.8,0-3.5,0-5.3,0c-0.1,0-0.2,0-0.4,0
			c-0.3-0.1-0.4-0.2-0.5-0.5c0-0.2,0-0.4,0.2-0.6c0.1,0,0.1-0.1,0.2-0.1C138.8,13.3,141.1,13.3,143.4,13.3z"/>
		<path class="st1" d="M112.6,37.3c0.1-0.1,0.1-0.1,0.2-0.2c0.3-0.3,0.9-0.2,1,0.2c0,0.1,0,0.3,0,0.4c0,1.8,0,3.5,0,5.3
			c0,0.1,0,0.2,0,0.4c0.1,0,0.2,0,0.4,0c1.8,0,3.5,0,5.3,0c0.1,0,0.2,0,0.3,0c0.3,0,0.5,0.3,0.6,0.6c0,0.3-0.2,0.6-0.6,0.6
			c-0.1,0-0.2,0-0.3,0c-2,0-4,0-6,0c-0.4,0-0.7-0.1-0.9-0.4C112.6,41.9,112.6,39.6,112.6,37.3z"/>
		<path class="st1" d="M120.3,17.4c1,0,1.9,0,2.9,0c0.6,0,0.8,0.2,0.8,0.8c0,1.9,0,3.8,0,5.7c0,0.6-0.2,0.8-0.8,0.8
			c-1.9,0-3.8,0-5.7,0c-0.6,0-0.8-0.2-0.8-0.8c0-1.9,0-3.8,0-5.7c0-0.6,0.2-0.8,0.8-0.8C118.3,17.4,119.3,17.4,120.3,17.4z
			 M122.7,23.5c0-1.6,0-3.2,0-4.8c-1.6,0-3.2,0-4.8,0c0,1.6,0,3.2,0,4.8C119.4,23.5,121.1,23.5,122.7,23.5z"/>
		<path class="st1" d="M136.1,24.7c-1,0-1.9,0-2.9,0c-0.6,0-0.8-0.2-0.8-0.8c0-1.9,0-3.8,0-5.7c0-0.6,0.2-0.8,0.8-0.8
			c1.9,0,3.8,0,5.7,0c0.6,0,0.8,0.2,0.8,0.8c0,1.9,0,3.8,0,5.7c0,0.6-0.2,0.8-0.8,0.8C138,24.7,137.1,24.7,136.1,24.7z M133.7,23.5
			c1.6,0,3.2,0,4.8,0c0-1.6,0-3.2,0-4.8c-1.6,0-3.2,0-4.8,0C133.7,20.2,133.7,21.8,133.7,23.5z"/>
		<path class="st1" d="M120.3,33.3c1,0,1.9,0,2.9,0c0.6,0,0.8,0.2,0.8,0.8c0,1.9,0,3.8,0,5.8c0,0.6-0.2,0.8-0.8,0.8
			c-1.9,0-3.8,0-5.8,0c-0.6,0-0.8-0.2-0.8-0.8c0-1.9,0-3.8,0-5.8c0-0.6,0.2-0.8,0.8-0.8C118.3,33.3,119.3,33.3,120.3,33.3z
			 M117.8,39.3c1.6,0,3.2,0,4.8,0c0-1.6,0-3.2,0-4.8c-1.6,0-3.2,0-4.8,0C117.8,36.1,117.8,37.7,117.8,39.3z"/>
		<path class="st1" d="M136.1,40.6c-1,0-1.9,0-2.9,0c-0.5,0-0.8-0.2-0.8-0.8c0-1.9,0-3.9,0-5.8c0-0.5,0.2-0.8,0.8-0.8
			c1.9,0,3.9,0,5.8,0c0.5,0,0.8,0.2,0.8,0.8c0,1.9,0,3.9,0,5.8c0,0.5-0.2,0.8-0.8,0.8C138.1,40.6,137.1,40.6,136.1,40.6z
			 M133.7,34.5c0,1.6,0,3.2,0,4.8c1.6,0,3.2,0,4.8,0c0-1.6,0-3.2,0-4.8C136.9,34.5,135.3,34.5,133.7,34.5z"/>
		<path class="st1" d="M130,24.7c-0.1,0-0.3,0-0.4,0c-1.2,0-2.5,0-3.7,0c-0.6,0-0.8-0.2-0.8-0.8c0-1.9,0-3.8,0-5.7
			c0-0.1,0-0.1,0-0.2c0-0.4,0.3-0.6,0.6-0.6c0.3,0,0.6,0.3,0.6,0.6c0,0.1,0,0.2,0,0.2c0,1.6,0,3.2,0,4.9c0,0.1,0,0.2,0,0.4
			c0.1,0,0.2,0,0.3,0c1.3,0,2.5,0,3.8,0c0.6,0,0.8,0.2,0.8,0.8c0,0.9,0,1.9,0,2.9c0.6,0,1.1,0,1.7,0c0.1,0,0.3,0,0.4,0.1
			c0.3,0.1,0.4,0.3,0.4,0.6c0,0.3-0.3,0.5-0.6,0.5c-0.3,0-0.7,0-1,0c-0.4,0-0.9,0-1.3,0c-0.5,0-0.7-0.2-0.7-0.7
			C130,26.7,130,25.7,130,24.7z"/>
		<path class="st1" d="M142.6,43.4c0-0.1,0-0.3,0-0.4c0-1.8,0-3.5,0-5.3c0-0.1,0-0.2,0-0.3c0-0.3,0.3-0.5,0.6-0.5
			c0.3,0,0.6,0.2,0.6,0.5c0,0.1,0,0.2,0,0.3c0,2,0,4,0,6c0,0.6-0.2,0.8-0.8,0.8c-2,0-4,0-6,0c-0.1,0-0.1,0-0.2,0
			c-0.4,0-0.6-0.3-0.6-0.6c0-0.3,0.3-0.6,0.6-0.6c0.1,0,0.2,0,0.2,0c1.7,0,3.5,0,5.2,0C142.3,43.4,142.5,43.4,142.6,43.4z"/>
		<path class="st1" d="M127.6,30.8c-0.2,0-0.3,0-0.4,0c-2.4,0-4.8,0-7.2,0c-0.1,0-0.1,0-0.2,0c-0.5,0-0.8-0.2-0.8-0.6
			c0-0.4,0.3-0.6,0.8-0.6c2.7,0,5.5,0,8.2,0c0.6,0,0.8,0.2,0.8,0.8c0,1.1,0,2.2,0,3.3c0,0,0,0,0,0.1c0,0.4-0.2,0.7-0.6,0.7
			c-0.4,0-0.6-0.3-0.6-0.7c0-0.9,0-1.7,0-2.6C127.6,31.1,127.6,31,127.6,30.8z"/>
		<path class="st1" d="M130,39.4c0-0.1,0-0.3,0-0.4c0-2,0-4,0-6.1c0-0.1,0-0.2,0-0.3c0-0.4,0.3-0.6,0.6-0.6c0.3,0,0.6,0.2,0.6,0.6
			c0,0.1,0,0.2,0,0.2c0,2.3,0,4.6,0,6.9c0,0.6-0.2,0.8-0.8,0.8c-0.7,0-1.4,0-2.1,0c-0.4,0-0.7-0.2-0.7-0.6c0-0.4,0.3-0.6,0.7-0.6
			C128.9,39.4,129.4,39.4,130,39.4z"/>
		<path class="st1" d="M120.2,28.4c-1,0-1.9,0-2.9,0c-0.2,0-0.4,0-0.5-0.1c-0.1-0.1-0.2-0.4-0.2-0.5c0-0.2,0.2-0.3,0.4-0.5
			c0.1-0.1,0.3-0.1,0.4-0.1c1.9,0,3.8,0,5.7,0c0.1,0,0.1,0,0.2,0c0.4,0,0.6,0.3,0.6,0.6c0,0.3-0.3,0.6-0.6,0.6c-0.5,0-1.1,0-1.6,0
			C121.2,28.4,120.7,28.4,120.2,28.4z"/>
		<path class="st1" d="M136.1,30.8c-0.9,0-1.9,0-2.8,0c-0.1,0-0.2,0-0.3,0c-0.3,0-0.6-0.3-0.6-0.6c0-0.3,0.2-0.6,0.6-0.6
			c0.1,0,0.1,0,0.2,0c1.9,0,3.9,0,5.8,0c0.1,0,0.1,0,0.2,0c0.3,0.1,0.5,0.3,0.5,0.6c0,0.3-0.2,0.5-0.6,0.6c-0.1,0-0.2,0-0.3,0
			C138,30.8,137.1,30.8,136.1,30.8z"/>
		<path class="st1" d="M130,21c0-1,0-1.9,0-2.8c0-0.1,0-0.2,0-0.4c0.1-0.3,0.3-0.5,0.6-0.5c0.3,0,0.5,0.2,0.6,0.5c0,0.1,0,0.2,0,0.3
			c0,1.1,0,2.2,0,3.3c0,0.6-0.2,0.8-0.8,0.8c-0.7,0-1.4,0-2.2,0c-0.4,0-0.7-0.2-0.7-0.5c0-0.4,0.2-0.7,0.7-0.7
			C128.9,21,129.4,21,130,21z"/>
		<path class="st1" d="M126.4,36.9c0,1,0,1.9,0,2.8c0,0.1,0,0.2,0,0.4c-0.1,0.3-0.3,0.5-0.6,0.5c-0.3,0-0.5-0.2-0.6-0.5
			c0-0.1,0-0.2,0-0.3c0-1.1,0-2.2,0-3.3c0-0.6,0.2-0.8,0.8-0.8c0.7,0,1.4,0,2.1,0c0.4,0,0.7,0.2,0.7,0.6c0,0.4-0.3,0.6-0.7,0.6
			C127.5,36.9,127,36.9,126.4,36.9z"/>
		<path class="st1" d="M137.4,28.4c-0.6,0-1.1,0-1.7,0c-0.4,0-0.7-0.2-0.7-0.6c0-0.4,0.3-0.6,0.7-0.6c1.1,0,2.3,0,3.4,0
			c0.4,0,0.7,0.2,0.7,0.6c0,0.4-0.3,0.6-0.7,0.6C138.5,28.4,137.9,28.4,137.4,28.4z"/>
		<path class="st1" d="M127,28.4c-0.4,0-0.8,0-1.1,0c-0.4,0-0.7-0.3-0.7-0.6c0-0.4,0.3-0.6,0.7-0.6c0.8,0,1.5,0,2.3,0
			c0.4,0,0.7,0.3,0.7,0.6c0,0.4-0.3,0.6-0.7,0.6C127.7,28.4,127.3,28.4,127,28.4z"/>
		<path class="st1" d="M117.8,30.2c0,0.3-0.3,0.6-0.6,0.6c-0.3,0-0.6-0.3-0.6-0.6c0-0.3,0.3-0.6,0.6-0.6
			C117.5,29.6,117.8,29.9,117.8,30.2z"/>
		<path class="st1" d="M130.6,29.6c0.3,0,0.6,0.3,0.6,0.6c0,0.3-0.3,0.6-0.6,0.6c-0.3,0-0.6-0.3-0.6-0.6
			C130,29.9,130.3,29.6,130.6,29.6z"/>
		<path class="st1" d="M121.5,21c0,0.2,0,0.4,0,0.6c0,0.4-0.3,0.6-0.6,0.6c-0.4,0-0.8,0-1.2,0c-0.4,0-0.6-0.2-0.6-0.6
			c0-0.4,0-0.8,0-1.2c0-0.4,0.2-0.6,0.6-0.6c0.4,0,0.8,0,1.2,0c0.4,0,0.6,0.2,0.6,0.6C121.5,20.6,121.5,20.8,121.5,21z"/>
		<path class="st1" d="M136.1,19.8c0.2,0,0.4,0,0.6,0c0.4,0,0.6,0.2,0.6,0.6c0,0.4,0,0.8,0,1.2c0,0.4-0.3,0.6-0.6,0.6
			c-0.4,0-0.8,0-1.1,0c-0.4,0-0.6-0.2-0.7-0.7c0-0.4,0-0.8,0-1.1c0-0.4,0.2-0.6,0.7-0.7C135.8,19.8,136,19.8,136.1,19.8z"/>
		<path class="st1" d="M121.5,36.9c0,0.2,0,0.4,0,0.6c0,0.4-0.2,0.6-0.6,0.6c-0.4,0-0.8,0-1.2,0c-0.4,0-0.6-0.2-0.6-0.6
			c0-0.4,0-0.8,0-1.2c0-0.4,0.3-0.6,0.7-0.6c0.4,0,0.7,0,1.1,0c0.4,0,0.7,0.2,0.7,0.7C121.5,36.6,121.5,36.7,121.5,36.9z"/>
		<path class="st1" d="M134.9,36.9c0-0.2,0-0.4,0-0.6c0-0.4,0.2-0.6,0.6-0.6c0.4,0,0.8,0,1.2,0c0.4,0,0.6,0.2,0.6,0.6
			c0,0.4,0,0.8,0,1.2c0,0.4-0.3,0.6-0.6,0.6c-0.4,0-0.8,0-1.2,0c-0.4,0-0.6-0.2-0.6-0.6C134.9,37.3,134.9,37.1,134.9,36.9
			C134.9,36.9,134.9,36.9,134.9,36.9z"/>
	</g>
</g>
</svg>
