<?xml version="1.0" encoding="utf-8"?>
<!-- Generator: Adobe Illustrator 24.0.2, SVG Export Plug-In . SVG Version: 6.00 Build 0)  -->
<!DOCTYPE svg PUBLIC "-//W3C//DTD SVG 1.1//EN" "http://www.w3.org/Graphics/SVG/1.1/DTD/svg11.dtd" [
	<!ENTITY ns_extend "http://ns.adobe.com/Extensibility/1.0/">
	<!ENTITY ns_ai "http://ns.adobe.com/AdobeIllustrator/10.0/">
	<!ENTITY ns_graphs "http://ns.adobe.com/Graphs/1.0/">
	<!ENTITY ns_vars "http://ns.adobe.com/Variables/1.0/">
	<!ENTITY ns_imrep "http://ns.adobe.com/ImageReplacement/1.0/">
	<!ENTITY ns_sfw "http://ns.adobe.com/SaveForWeb/1.0/">
	<!ENTITY ns_custom "http://ns.adobe.com/GenericCustomNamespace/1.0/">
	<!ENTITY ns_adobe_xpath "http://ns.adobe.com/XPath/1.0/">
]>
<svg version="1.1" id="Capa_1" xmlns:x="&ns_extend;" xmlns:i="&ns_ai;" xmlns:graph="&ns_graphs;"
	 xmlns="http://www.w3.org/2000/svg" xmlns:xlink="http://www.w3.org/1999/xlink" x="0px" y="0px" viewBox="0 0 100 100"
	 style="enable-background:new 0 0 100 100;" xml:space="preserve">
<style type="text/css">
	.Sombra_x0020_paralela{fill:none;}
	.Resplandor_x0020_externo_x0020_5_x0020_pt_x002E_{fill:none;}
	.Neón_x0020_azul{fill:none;stroke:#8AACDA;stroke-width:7;stroke-linecap:round;stroke-linejoin:round;}
	.Resalte_x0020_cromado{fill:url(#SVGID_1_);stroke:#00000000;stroke-width:0.3629;stroke-miterlimit:1;}
	.A_x0020_todo_x0020_ritmo_GS{fill:#FFDD00;}
	.Alyssa_GS{fill:#A6D0E4;}
	.st0{fill:#5B3289;}
</style>
<metadata>
	<sfw  xmlns="&ns_sfw;">
		<slices></slices>
		<sliceSourceBounds  bottomLeftOrigin="true" height="86.7" width="95" x="3" y="-88.7"></sliceSourceBounds>
	</sfw>
</metadata>
<linearGradient id="SVGID_1_" gradientUnits="userSpaceOnUse" x1="0" y1="0" x2="6.123234e-17" y2="-1">
	<stop  offset="0" style="stop-color:#656565"/>
	<stop  offset="0.618" style="stop-color:#1B1B1B"/>
	<stop  offset="0.6292" style="stop-color:#545454"/>
	<stop  offset="0.9831" style="stop-color:#3E3E3E"/>
</linearGradient>
<g>
	<path class="st0" d="M31,40.6c0,8.8,0,17.5,0,26.3c0,1.5,0.5,2,2,2c11.9,0,23.8,0,35.7,0c1.4,0,2-0.5,2-2c0-1.8,0-3.7,0-5.5
		c0-15.6,0-31.2,0-46.8c0-0.9-0.2-1.6-1.1-2C64.3,9.9,58.8,8.4,53,8.1c-7.2-0.4-14,1-20.5,4.2c-1.2,0.6-1.6,1.3-1.6,2.6
		C31,23.4,31,32,31,40.6z M34.9,14.5c10.7-4.6,21.3-4.6,32,0.1c0.5,0.2,0.7,0.5,0.7,1c0,16.5,0,33,0,49.5c0,0.2,0,0.4,0,0.7
		c-11.2,0-22.3,0-33.5,0c0-0.4,0-0.7,0-1c0-16.3,0-32.6,0-49C34,15.1,34.2,14.8,34.9,14.5z"/>
	<path class="st0" d="M38.5,34.6h24.6c0.7,0,1.3-0.6,1.3-1.3S63.9,32,63.1,32H38.5c-0.7,0-1.3,0.6-1.3,1.3S37.8,34.6,38.5,34.6z"/>
	<path class="st0" d="M96.7,85.6h-11c-0.3-0.8-0.5-1.4-0.8-2.1c-1.5-3.2-4.2-5.1-7.3-6.6c-0.8-0.4-1-0.8-1-1.7c0-21.4,0-42.8,0-64.2
		c0-1-0.3-1.7-1.3-2.2c-1.6-0.8-3.1-1.7-4.7-2.4c-8.4-3.9-17.3-5.2-26.4-4c-6.4,0.9-12.4,3-18,6.3c-1,0.6-1.4,1.3-1.4,2.5
		c0,21,0,42,0.1,63c0,1.4-0.4,2.1-1.7,2.7c-3.5,1.8-6.3,4.2-7.3,8.3c0,0.1-0.2,0.3-0.4,0.4H4.3c-0.7,0-1.3,0.7-1.3,1.6
		c0,0.9,0.6,1.6,1.3,1.6h0.8c0,0,0,0,0,0c0.3,0,0.5,0,0.7,0c30.2,0,60.4,0,90.6,0c0,0,0,0,0,0h0.2c0.7,0,1.3-0.7,1.3-1.6
		C98,86.3,97.4,85.6,96.7,85.6z M28.7,10.9c8.7-4.9,18-6.7,27.9-5.4C62.5,6.2,68,8,73.1,11.1c0.2,0.1,0.4,0.5,0.5,0.8
		c0.1,0.1,0,0.3,0,0.4c0,20.6,0,41.2,0,61.8c0,0.3,0,0.6,0,0.9c-15.2-4.2-30.4-4-45.7-0.3c0-0.2,0-0.5,0-0.8c0-20.6,0-41.2,0-61.8
		C27.9,11.5,28.1,11.2,28.7,10.9z M23.8,80.2c4-2.3,8.3-3.4,12.8-4.1c8.1-1.3,16.2-1.3,24.3-0.5c5.5,0.6,10.9,1.6,15.8,4.2
		c2.1,1.1,4,2.5,5.2,4.6c0.2,0.4,0.4,0.8,0.6,1.2H19C19.8,83,21.6,81.4,23.8,80.2z"/>
	<path class="st0" d="M58.4,38.9H43.2c-0.7,0-1.3,0.6-1.3,1.3c0,0.7,0.6,1.3,1.3,1.3h15.2c0.7,0,1.3-0.6,1.3-1.3
		C59.8,39.5,59.2,38.9,58.4,38.9z"/>
	<path class="st0" d="M58.2,44.7H43c-0.7,0-1.3,0.6-1.3,1.3s0.6,1.3,1.3,1.3h15.2c0.7,0,1.3-0.6,1.3-1.3S59,44.7,58.2,44.7z"/>
</g>
</svg>
