<?xml version="1.0" encoding="utf-8"?>
<!-- Generator: Adobe Illustrator 24.0.2, SVG Export Plug-In . SVG Version: 6.00 Build 0)  -->
<!DOCTYPE svg PUBLIC "-//W3C//DTD SVG 1.1//EN" "http://www.w3.org/Graphics/SVG/1.1/DTD/svg11.dtd" [
	<!ENTITY ns_extend "http://ns.adobe.com/Extensibility/1.0/">
	<!ENTITY ns_ai "http://ns.adobe.com/AdobeIllustrator/10.0/">
	<!ENTITY ns_graphs "http://ns.adobe.com/Graphs/1.0/">
	<!ENTITY ns_vars "http://ns.adobe.com/Variables/1.0/">
	<!ENTITY ns_imrep "http://ns.adobe.com/ImageReplacement/1.0/">
	<!ENTITY ns_sfw "http://ns.adobe.com/SaveForWeb/1.0/">
	<!ENTITY ns_custom "http://ns.adobe.com/GenericCustomNamespace/1.0/">
	<!ENTITY ns_adobe_xpath "http://ns.adobe.com/XPath/1.0/">
]>
<svg version="1.1" id="Capa_1" xmlns:x="&ns_extend;" xmlns:i="&ns_ai;" xmlns:graph="&ns_graphs;"
	 xmlns="http://www.w3.org/2000/svg" xmlns:xlink="http://www.w3.org/1999/xlink" x="0px" y="0px" viewBox="0 0 100 100"
	 style="enable-background:new 0 0 100 100;" xml:space="preserve">
<style type="text/css">
	.Sombra_x0020_paralela{fill:none;}
	.Resplandor_x0020_externo_x0020_5_x0020_pt_x002E_{fill:none;}
	.Neón_x0020_azul{fill:none;stroke:#8AACDA;stroke-width:7;stroke-linecap:round;stroke-linejoin:round;}
	.Resalte_x0020_cromado{fill:url(#SVGID_1_);stroke:#FFFFFF;stroke-width:0.3629;stroke-miterlimit:1;}
	.A_x0020_todo_x0020_ritmo_GS{fill:#FFDD00;}
	.Alyssa_GS{fill:#A6D0E4;}
	.st0{fill:#FFFFFF;}
	.st1{fill:#5B3289;}
</style>
<metadata>
	<sfw  xmlns="&ns_sfw;">
		<slices></slices>
		<sliceSourceBounds  bottomLeftOrigin="true" height="95" width="94.9" x="1.8" y="-97"></sliceSourceBounds>
	</sfw>
</metadata>
<linearGradient id="SVGID_1_" gradientUnits="userSpaceOnUse" x1="0" y1="0" x2="6.123234e-17" y2="-1">
	<stop  offset="0" style="stop-color:#656565"/>
	<stop  offset="0.618" style="stop-color:#1B1B1B"/>
	<stop  offset="0.6292" style="stop-color:#545454"/>
	<stop  offset="0.9831" style="stop-color:#3E3E3E"/>
</linearGradient>
<g>
	<path class="st0" d="M72.9,8.5c-17-10-38.5-8.3-53.7,4.4c-9.6,7.7-15.7,18.8-17,31l-0.3,2.7v5.9c0.2,1.7,0.4,3.4,0.7,5.1
		C4.5,69.3,10.8,79.8,20.2,87c7.3,5.8,16.1,9.2,25.4,9.8c0.2,0,0.5,0.1,0.7,0.2h5.9c1.8-0.2,3.6-0.4,5.3-0.7
		c12.8-2.2,24.2-9.7,31.3-20.6c5.4-7.9,8.2-17.2,7.8-26.8C96.1,31.2,88.2,17.5,72.9,8.5z"/>
	<path class="st1" d="M24.3,66.8l16.8-17.5l4,2.8l2.4,1.6c0.8,0.8,2.1,0.8,2.9,0l6.4-4.4l17,17.6c-0.7,0.2-48.6,0.3-49.4,0.2
		L24.3,66.8z"/>
	<path class="st1" d="M23.7,32.5c0.7-0.6,1.7-1,2.7-1c2.3,0,32.2,0,44.8,0c1.1-0.1,2.1,0.3,2.9,1c-0.6,0.4-1.1,0.8-1.7,1.2
		C64.8,39,57.2,44.3,49.6,49.6c-0.3,0.3-0.8,0.3-1.1,0.1c-8.1-5.6-16.1-11.2-24.2-16.8L23.7,32.5z"/>
	<path class="st1" d="M38.1,47L22.3,63.4V36.1L38.1,47z"/>
	<path class="st1" d="M60.4,47l15.8-10.9v27.3L60.4,47z"/>
</g>
</svg>
