<?xml version="1.0" encoding="utf-8"?>
<!-- Generator: Adobe Illustrator 24.0.2, SVG Export Plug-In . SVG Version: 6.00 Build 0)  -->
<!DOCTYPE svg PUBLIC "-//W3C//DTD SVG 1.1//EN" "http://www.w3.org/Graphics/SVG/1.1/DTD/svg11.dtd" [
	<!ENTITY ns_extend "http://ns.adobe.com/Extensibility/1.0/">
	<!ENTITY ns_ai "http://ns.adobe.com/AdobeIllustrator/10.0/">
	<!ENTITY ns_graphs "http://ns.adobe.com/Graphs/1.0/">
	<!ENTITY ns_vars "http://ns.adobe.com/Variables/1.0/">
	<!ENTITY ns_imrep "http://ns.adobe.com/ImageReplacement/1.0/">
	<!ENTITY ns_sfw "http://ns.adobe.com/SaveForWeb/1.0/">
	<!ENTITY ns_custom "http://ns.adobe.com/GenericCustomNamespace/1.0/">
	<!ENTITY ns_adobe_xpath "http://ns.adobe.com/XPath/1.0/">
]>
<svg version="1.1" id="Capa_1" xmlns:x="&ns_extend;" xmlns:i="&ns_ai;" xmlns:graph="&ns_graphs;"
	 xmlns="http://www.w3.org/2000/svg" xmlns:xlink="http://www.w3.org/1999/xlink" x="0px" y="0px" viewBox="0 0 100 100"
	 style="enable-background:new 0 0 100 100;" xml:space="preserve">
<style type="text/css">
	.Sombra_x0020_paralela{fill:none;}
	.Resplandor_x0020_externo_x0020_5_x0020_pt_x002E_{fill:none;}
	.Neón_x0020_azul{fill:none;stroke:#8AACDA;stroke-width:7;stroke-linecap:round;stroke-linejoin:round;}
	.Resalte_x0020_cromado{fill:url(#SVGID_1_);stroke:#FFFFFF;stroke-width:0.3629;stroke-miterlimit:1;}
	.A_x0020_todo_x0020_ritmo_GS{fill:#FFDD00;}
	.Alyssa_GS{fill:#A6D0E4;}
	.st0{fill:#FFFFFF;}
	.st1{fill:#5B3289;}
</style>
<metadata>
	<sfw  xmlns="&ns_sfw;">
		<slices></slices>
		<sliceSourceBounds  bottomLeftOrigin="true" height="98.4" width="98.4" x="0.5" y="-98.9"></sliceSourceBounds>
	</sfw>
</metadata>
<linearGradient id="SVGID_1_" gradientUnits="userSpaceOnUse" x1="0" y1="0" x2="6.123234e-17" y2="-1">
	<stop  offset="0" style="stop-color:#656565"/>
	<stop  offset="0.618" style="stop-color:#1B1B1B"/>
	<stop  offset="0.6292" style="stop-color:#545454"/>
	<stop  offset="0.9831" style="stop-color:#3E3E3E"/>
</linearGradient>
<g>
	<path class="st0" d="M52.8,98.9c-2,0-4.1,0-6.1,0c-0.2-0.1-0.5-0.1-0.7-0.2c-4.4-0.3-8.7-1.2-12.8-2.7C8.8,87.3-4.6,61.3,2.4,36.4
		C11,5.5,46.5-9,74.4,7.2c13.1,7.6,21,19.2,23.8,34.1c0.3,1.8,0.5,3.5,0.7,5.3c0,2,0,4,0,6c-0.1,0.3-0.1,0.6-0.2,0.9
		c-0.3,1.9-0.4,3.9-0.8,5.8c-3.8,19.8-19.8,35.4-39.7,38.8C56.4,98.5,54.6,98.7,52.8,98.9z M53,43.6c0-2.4-0.1-4.6,0-6.8
		c0.1-1.9,1.2-3,3.1-3.2c1.4-0.1,2.8-0.1,4.2-0.1c1.1,0,1.6-0.4,1.6-1.5c0-1.8,0-3.6,0-5.4c0-1-0.5-1.5-1.5-1.5c-2,0-4.1-0.1-6.1,0
		c-5.2,0.2-9,3.3-10,8.4c-0.4,2-0.3,4.1-0.4,6.2c0,1.2,0,2.5,0,3.7c-0.2,0.1-0.2,0.1-0.3,0.1c-1.6,0-3.1,0-4.7,0
		c-1.2,0-1.7,0.5-1.7,1.7c0,1.9,0,3.8,0,5.8c0,1.6,0.3,2,1.9,2c1.6,0,3.1,0,4.8,0c0,0.5,0,0.8,0,1.2c0,6.2,0,12.4,0,18.6
		c0,1.3,0.2,1.5,1.4,1.5c2,0,4,0,6,0c1.3,0,1.6-0.2,1.6-1.6c0-6.2,0-12.4,0-18.5c0-0.4,0-0.7,0-1.1c0.2-0.1,0.3-0.1,0.3-0.1
		c2,0,4.1,0,6.1,0c1.5,0,1.8-0.3,2-1.8c0.2-1.8,0.4-3.7,0.7-5.5c0.2-1.6-0.2-2.1-1.8-2.1C57.9,43.6,55.5,43.6,53,43.6z"/>
	<path class="st1" d="M53,43.6c2.5,0,4.9,0,7.3,0c1.6,0,2,0.5,1.8,2.1c-0.2,1.8-0.5,3.7-0.7,5.5c-0.2,1.5-0.5,1.8-2,1.8
		c-2,0-4.1,0-6.1,0c-0.1,0-0.1,0-0.3,0.1c0,0.3,0,0.7,0,1.1c0,6.2,0,12.4,0,18.5c0,1.3-0.2,1.5-1.6,1.6c-2,0-4,0-6,0
		c-1.2,0-1.4-0.2-1.4-1.5c0-6.2,0-12.4,0-18.6c0-0.3,0-0.7,0-1.2c-1.6,0-3.2,0-4.8,0s-1.9-0.3-1.9-2c0-1.9,0-3.8,0-5.8
		c0-1.2,0.4-1.7,1.7-1.7c1.6,0,3.1,0,4.7,0c0.1,0,0.1-0.1,0.3-0.1c0-1.2,0-2.4,0-3.7c0.1-2.1,0-4.2,0.4-6.2c1-5.1,4.7-8.2,10-8.4
		c2-0.1,4.1,0,6.1,0c1,0,1.5,0.5,1.5,1.5c0,1.8,0,3.6,0,5.4c0,1.1-0.5,1.5-1.6,1.5c-1.4,0-2.8,0-4.2,0.1c-1.9,0.2-3,1.3-3.1,3.2
		C52.9,39,53,41.2,53,43.6z"/>
</g>
</svg>
