<?xml version="1.0" encoding="utf-8"?>
<!-- Generator: Adobe Illustrator 24.0.2, SVG Export Plug-In . SVG Version: 6.00 Build 0)  -->
<!DOCTYPE svg PUBLIC "-//W3C//DTD SVG 1.1//EN" "http://www.w3.org/Graphics/SVG/1.1/DTD/svg11.dtd" [
	<!ENTITY ns_extend "http://ns.adobe.com/Extensibility/1.0/">
	<!ENTITY ns_ai "http://ns.adobe.com/AdobeIllustrator/10.0/">
	<!ENTITY ns_graphs "http://ns.adobe.com/Graphs/1.0/">
	<!ENTITY ns_vars "http://ns.adobe.com/Variables/1.0/">
	<!ENTITY ns_imrep "http://ns.adobe.com/ImageReplacement/1.0/">
	<!ENTITY ns_sfw "http://ns.adobe.com/SaveForWeb/1.0/">
	<!ENTITY ns_custom "http://ns.adobe.com/GenericCustomNamespace/1.0/">
	<!ENTITY ns_adobe_xpath "http://ns.adobe.com/XPath/1.0/">
]>
<svg version="1.1" id="Capa_1" xmlns:x="&ns_extend;" xmlns:i="&ns_ai;" xmlns:graph="&ns_graphs;"
	 xmlns="http://www.w3.org/2000/svg" xmlns:xlink="http://www.w3.org/1999/xlink" x="0px" y="0px" viewBox="0 0 100 100"
	 style="enable-background:new 0 0 100 100;" xml:space="preserve">
<style type="text/css">
	.Sombra_x0020_paralela{fill:none;}
	.Resplandor_x0020_externo_x0020_5_x0020_pt_x002E_{fill:none;}
	.Neón_x0020_azul{fill:none;stroke:#8AACDA;stroke-width:7;stroke-linecap:round;stroke-linejoin:round;}
	.Resalte_x0020_cromado{fill:url(#SVGID_1_);stroke:#FFFFFF;stroke-width:0.3629;stroke-miterlimit:1;}
	.A_x0020_todo_x0020_ritmo_GS{fill:#FFDD00;}
	.Alyssa_GS{fill:#A6D0E4;}
	.st0{fill:#253238;}
</style>
<metadata>
	<sfw  xmlns="&ns_sfw;">
		<slices></slices>
		<sliceSourceBounds  bottomLeftOrigin="true" height="92" width="96" x="1" y="-94"></sliceSourceBounds>
	</sfw>
</metadata>
<linearGradient id="SVGID_1_" gradientUnits="userSpaceOnUse" x1="0" y1="0" x2="6.123234e-17" y2="-1">
	<stop  offset="0" style="stop-color:#656565"/>
	<stop  offset="0.618" style="stop-color:#1B1B1B"/>
	<stop  offset="0.6292" style="stop-color:#545454"/>
	<stop  offset="0.9831" style="stop-color:#3E3E3E"/>
</linearGradient>
<path class="st0" d="M96.9,37.7c-1.5-5-3.9-6.8-9.1-6.8c-6.5,0-13,0-19.5,0c-2.8,0-4.4-1.2-5.2-3.8c-2.1-6.3-4.1-12.7-6.2-19
	c-0.2-0.7-0.5-1.4-0.8-2c-1.8-3-4.4-4.4-7.8-4.1c-3.4,0.3-5.8,2.3-6.9,5.5c-2.2,6.5-4.2,13-6.4,19.5c-0.9,2.8-2.4,3.9-5.3,3.9
	c-6.5,0-13.1,0-19.6,0c-0.6,0-1.1,0-1.7,0.1c-2.7,0.3-4.8,1.6-6.2,4C0,38.6,1,43.1,4.6,45.8c5.5,4,11,8,16.4,12
	c2.2,1.6,2.8,3.5,2,6.1c-2.1,6.5-4.2,13-6.3,19.5c-0.7,2.1-0.6,4.1,0.4,6.1c2.2,4.6,7.9,6,12.1,3c5.6-4,11.2-8.1,16.8-12.2
	c1.1-0.8,2.4-1.3,3.7-1c0.9,0.2,1.9,0.6,2.7,1.2c5.5,3.9,10.9,7.9,16.3,11.8c2.2,1.6,4.5,2.2,7.2,1.4c4.5-1.3,7-5.8,5.5-10.4
	c-2.1-6.5-4.2-12.9-6.3-19.4c-0.9-2.8-0.3-4.6,2-6.3c5-3.7,10-7.4,15.1-10.9c2.4-1.7,4.3-3.5,4.8-6.5c0-0.7,0-1.5,0-2.2
	C97,37.9,96.9,37.8,96.9,37.7z"/>
</svg>
