<?xml version="1.0" encoding="utf-8"?>
<!-- Generator: Adobe Illustrator 24.0.2, SVG Export Plug-In . SVG Version: 6.00 Build 0)  -->
<!DOCTYPE svg PUBLIC "-//W3C//DTD SVG 1.1//EN" "http://www.w3.org/Graphics/SVG/1.1/DTD/svg11.dtd" [
	<!ENTITY ns_extend "http://ns.adobe.com/Extensibility/1.0/">
	<!ENTITY ns_ai "http://ns.adobe.com/AdobeIllustrator/10.0/">
	<!ENTITY ns_graphs "http://ns.adobe.com/Graphs/1.0/">
	<!ENTITY ns_vars "http://ns.adobe.com/Variables/1.0/">
	<!ENTITY ns_imrep "http://ns.adobe.com/ImageReplacement/1.0/">
	<!ENTITY ns_sfw "http://ns.adobe.com/SaveForWeb/1.0/">
	<!ENTITY ns_custom "http://ns.adobe.com/GenericCustomNamespace/1.0/">
	<!ENTITY ns_adobe_xpath "http://ns.adobe.com/XPath/1.0/">
]>
<svg version="1.1" id="Capa_1" xmlns:x="&ns_extend;" xmlns:i="&ns_ai;" xmlns:graph="&ns_graphs;"
	 xmlns="http://www.w3.org/2000/svg" xmlns:xlink="http://www.w3.org/1999/xlink" x="0px" y="0px" viewBox="0 0 100 100"
	 style="enable-background:new 0 0 100 100;" xml:space="preserve">
<style type="text/css">
	.Sombra_x0020_paralela{fill:none;}
	.Resplandor_x0020_externo_x0020_5_x0020_pt_x002E_{fill:none;}
	.Neón_x0020_azul{fill:none;stroke:#8AACDA;stroke-width:7;stroke-linecap:round;stroke-linejoin:round;}
	.Resalte_x0020_cromado{fill:url(#SVGID_1_);stroke:#FFFFFF;stroke-width:0.3629;stroke-miterlimit:1;}
	.A_x0020_todo_x0020_ritmo_GS{fill:#FFDD00;}
	.Alyssa_GS{fill:#A6D0E4;}
	.st0{fill:#253238;}
</style>
<metadata>
	<sfw  xmlns="&ns_sfw;">
		<slices></slices>
		<sliceSourceBounds  bottomLeftOrigin="true" height="92" width="96" x="1" y="-94"></sliceSourceBounds>
	</sfw>
</metadata>
<linearGradient id="SVGID_1_" gradientUnits="userSpaceOnUse" x1="0" y1="0" x2="6.123234e-17" y2="-1">
	<stop  offset="0" style="stop-color:#656565"/>
	<stop  offset="0.618" style="stop-color:#1B1B1B"/>
	<stop  offset="0.6292" style="stop-color:#545454"/>
	<stop  offset="0.9831" style="stop-color:#3E3E3E"/>
</linearGradient>
<g>
	<g>
		<path class="st0" d="M97,40.2c-0.6,2.9-2.5,4.8-4.8,6.5c-5.1,3.6-10.1,7.3-15.1,10.9c-2.3,1.7-2.9,3.5-2,6.3
			c2.1,6.5,4.2,12.9,6.3,19.4c1.5,4.6-1,9.1-5.5,10.4c-2.6,0.7-5,0.1-7.2-1.4c-5.4-4-10.8-7.9-16.3-11.8c-0.8-0.6-1.7-1-2.7-1.2
			c-1.3-0.3-2.6,0.2-3.7,1c-5.6,4.1-11.2,8.2-16.8,12.2c-4.2,3-9.9,1.6-12.1-3c-0.9-2-1-4-0.4-6.1c2.1-6.5,4.2-13,6.3-19.5
			c0.8-2.6,0.2-4.5-2-6.1c-5.5-4-11-8-16.4-12C1,43.1,0,38.6,2.1,35c1.4-2.4,3.5-3.7,6.2-4C8.9,31,9.5,31,10.1,31
			c6.5,0,13.1,0,19.6,0c2.9,0,4.4-1.1,5.3-3.9c2.1-6.5,4.2-13,6.4-19.5c1.1-3.3,3.5-5.2,6.9-5.5c3.4-0.3,6.1,1.1,7.8,4.1
			c0.4,0.6,0.6,1.3,0.8,2c2.1,6.3,4.1,12.7,6.2,19c0.9,2.6,2.4,3.8,5.2,3.8c6.5,0,13,0,19.5,0c5.2,0,7.6,1.8,9.1,6.8
			c0,0.1,0.1,0.2,0.1,0.2C97,38.7,97,39.5,97,40.2z M19.7,34.2c-3.5,0-6.9,0-10.4,0c-1.2,0-2.3,0.3-3.3,1.1
			c-2.5,2.1-2.3,5.8,0.4,7.7c5.5,4,11,8,16.4,12c3.5,2.6,4.6,5.8,3.2,10c-2.1,6.3-4.1,12.6-6.1,19c-0.3,1-0.4,2.2-0.2,3.2
			c0.8,3.4,4.7,4.6,7.6,2.5c5.4-3.9,10.9-7.9,16.3-11.8c3.6-2.7,7.1-2.7,10.7,0c5.4,3.9,10.8,7.9,16.2,11.8c1,0.8,2.2,1.2,3.5,1.1
			c3.3-0.3,5.2-3.3,4.1-6.6c-2.1-6.6-4.2-13.1-6.4-19.7c-0.7-2-0.6-4,0.3-5.9c0.6-1.4,1.6-2.5,2.9-3.4c5.5-4,11-8,16.5-12
			c1.6-1.1,2.4-2.6,2.3-4.6c-0.2-2.7-2.2-4.4-5-4.4c-6.8,0-13.6,0-20.4,0c-4.1,0-7-2.1-8.2-5.9c-2.1-6.5-4.2-12.9-6.3-19.4
			C53,6.6,51.2,5.2,49,5.2c-2.2,0-3.9,1.4-4.7,3.7c-2.1,6.5-4.2,13-6.3,19.5c-1.2,3.7-4.2,5.8-8.1,5.9
			C26.5,34.2,23.1,34.2,19.7,34.2z"/>
	</g>
</g>
</svg>
