<?xml version="1.0" encoding="utf-8"?>
<!-- Generator: Adobe Illustrator 24.0.2, SVG Export Plug-In . SVG Version: 6.00 Build 0)  -->
<!DOCTYPE svg PUBLIC "-//W3C//DTD SVG 1.1//EN" "http://www.w3.org/Graphics/SVG/1.1/DTD/svg11.dtd" [
	<!ENTITY ns_extend "http://ns.adobe.com/Extensibility/1.0/">
	<!ENTITY ns_ai "http://ns.adobe.com/AdobeIllustrator/10.0/">
	<!ENTITY ns_graphs "http://ns.adobe.com/Graphs/1.0/">
	<!ENTITY ns_vars "http://ns.adobe.com/Variables/1.0/">
	<!ENTITY ns_imrep "http://ns.adobe.com/ImageReplacement/1.0/">
	<!ENTITY ns_sfw "http://ns.adobe.com/SaveForWeb/1.0/">
	<!ENTITY ns_custom "http://ns.adobe.com/GenericCustomNamespace/1.0/">
	<!ENTITY ns_adobe_xpath "http://ns.adobe.com/XPath/1.0/">
]>
<svg version="1.1" id="Capa_1" xmlns:x="&ns_extend;" xmlns:i="&ns_ai;" xmlns:graph="&ns_graphs;"
	 xmlns="http://www.w3.org/2000/svg" xmlns:xlink="http://www.w3.org/1999/xlink" x="0px" y="0px" viewBox="0 0 100 100"
	 style="enable-background:new 0 0 100 100;" xml:space="preserve">
<style type="text/css">
	.Sombra_x0020_paralela{fill:none;}
	.Resplandor_x0020_externo_x0020_5_x0020_pt_x002E_{fill:none;}
	.Neón_x0020_azul{fill:none;stroke:#8AACDA;stroke-width:7;stroke-linecap:round;stroke-linejoin:round;}
	.Resalte_x0020_cromado{fill:url(#SVGID_1_);stroke:#FFFFFF;stroke-width:0.3629;stroke-miterlimit:1;}
	.A_x0020_todo_x0020_ritmo_GS{fill:#FFDD00;}
	.Alyssa_GS{fill:#A6D0E4;}
	.st0{fill:#253238;}
</style>
<metadata>
	<sfw  xmlns="&ns_sfw;">
		<slices></slices>
		<sliceSourceBounds  bottomLeftOrigin="true" height="98" width="61.7" x="11.6" y="-99"></sliceSourceBounds>
	</sfw>
</metadata>
<linearGradient id="SVGID_1_" gradientUnits="userSpaceOnUse" x1="0" y1="0" x2="6.123234e-17" y2="-1">
	<stop  offset="0" style="stop-color:#656565"/>
	<stop  offset="0.618" style="stop-color:#1B1B1B"/>
	<stop  offset="0.6292" style="stop-color:#545454"/>
	<stop  offset="0.9831" style="stop-color:#3E3E3E"/>
</linearGradient>
<g>
	<g>
		<g>
			<path class="st0" d="M21.5,99c-0.5-0.6-1.2-1.2-1.6-2c-2.6-4.9-5.2-9.9-7.9-14.8c-0.7-1.3-0.6-2.3,0.3-3.5
				c1.9-2.3,14.1-18.4,15.9-20.8c0.6-0.7,1.3-1.2,2.2-1c1.3,0.3,1.9,1.8,1.1,3c-0.7,1-12,15.8-12.8,16.8c-0.9,1.2-1.8,2.3-2.7,3.5
				c-0.2,0.3-0.3,0.8-0.1,1.1c2.1,4,4.2,7.9,6.2,11.9c0.1,0.1,0.1,0.2,0.3,0.4c1.5-1.9,3-3.8,4.4-5.7c10.7-14.2,20.3-29.2,28.4-45
				c2.4-4.6,4-9.5,4.1-14.8c0.1-3.5-1.9-5.5-4.5-7.3c-0.7,1.8-1.4,3.5-2.1,5.2c-3.5,8.1-8.1,15.6-13.2,22.8
				c-2.9,4.1-5.9,8.1-8.8,12.2c-0.1,0.2-0.2,0.3-0.3,0.5c-0.8,0.9-1.9,1.1-2.8,0.5c-0.9-0.6-1.1-1.8-0.4-2.9
				c0.9-1.3,1.8-2.7,2.8-3.8c1-1.1,0.8-1.9,0.2-3c-2.1-3.8-4.3-7.7-6.1-11.7c-2-4.4-3-9.2-2.6-14.1c0.1-1.8,0.6-3.6,1.2-5.4
				c1.5-4.2,3.1-8.3,4.7-12.4C28.8,6,31,4.2,33.7,3c6.5-2.9,13-2.7,19.2,0.9c2,1.1,3.5,2.8,4.4,4.9c2.3,5.1,4.3,10.3,5.7,15.8
				c0.6,2.4,0.4,4.9,0.1,7.4c-0.6,4.5-2.1,8.8-4.3,12.9c-1.5,2.8-3.1,5.6-4.7,8.4c-0.3,0.6-0.3,0.9,0.1,1.4c6.1,8,12.1,16,18.2,24
				c1,1.3,1.1,2.3,0.4,3.8c-2.7,4.9-5.2,10-7.9,14.9c-0.4,0.7-1,1.1-1.6,1.7c-0.3,0-0.6,0-1,0c-1.1-1.2-2.4-2.4-3.4-3.6
				c-5.7-7.1-10.8-14.7-15.9-22.3c-0.2-0.3-0.4-0.6-0.6-0.9c-0.3,0.4-0.5,0.7-0.7,1c-5.5,8.4-11.1,16.6-17.6,24.3
				c-0.5,0.5-1,1-1.6,1.5C22.3,99,21.9,99,21.5,99z M62.5,93.7c0.2-0.4,0.4-0.7,0.5-1c2-3.7,3.9-7.4,5.9-11.1c0.3-0.6,0.3-1-0.1-1.6
				c-5.5-7.3-11-14.5-16.5-21.8c-0.2-0.2-0.4-0.4-0.6-0.7c-0.2,0.3-0.4,0.5-0.5,0.7c-2,3.2-3.9,6.4-5.9,9.6c-0.4,0.6-0.3,1,0,1.5
				c3.3,4.8,6.5,9.7,9.8,14.4C57.4,87.1,59.9,90.4,62.5,93.7z M29.9,20.7c-1.1,1.1-2.1,2-3.1,3c-0.8,0.9-1.3,2-1.3,3.3
				c-0.2,3.2,0.4,6.3,1.3,9.3c1.5,5,4.2,9.4,6.8,13.9c0,0.1,0.1,0.1,0.3,0.1c2-2.8,3.9-5.7,5.9-8.4c0.4-0.5,0.4-0.9,0-1.4
				c-3.1-4.7-5.7-9.7-7.9-14.9C31.2,24.1,30.6,22.5,29.9,20.7z M51.6,19.1c-6.2-2.1-12.1-2.1-18.2,0c2.4,6.6,5.4,12.6,9.1,18.6
				C46.2,31.7,49.2,25.6,51.6,19.1z M56.2,16.9c-0.7-2.1-1.5-4-2.1-5.9c-0.6-1.8-1.8-3.2-3.4-4.1C46,4.4,41.1,4.3,36.2,6.1
				c-1.9,0.7-3.8,1.8-4.7,3.7c-1.1,2.3-1.8,4.7-2.8,7.2C37.9,12.6,47,12.6,56.2,16.9z"/>
		</g>
	</g>
</g>
</svg>
