<?xml version="1.0" encoding="utf-8"?>
<!-- Generator: Adobe Illustrator 24.0.2, SVG Export Plug-In . SVG Version: 6.00 Build 0)  -->
<!DOCTYPE svg PUBLIC "-//W3C//DTD SVG 1.1//EN" "http://www.w3.org/Graphics/SVG/1.1/DTD/svg11.dtd" [
	<!ENTITY ns_extend "http://ns.adobe.com/Extensibility/1.0/">
	<!ENTITY ns_ai "http://ns.adobe.com/AdobeIllustrator/10.0/">
	<!ENTITY ns_graphs "http://ns.adobe.com/Graphs/1.0/">
	<!ENTITY ns_vars "http://ns.adobe.com/Variables/1.0/">
	<!ENTITY ns_imrep "http://ns.adobe.com/ImageReplacement/1.0/">
	<!ENTITY ns_sfw "http://ns.adobe.com/SaveForWeb/1.0/">
	<!ENTITY ns_custom "http://ns.adobe.com/GenericCustomNamespace/1.0/">
	<!ENTITY ns_adobe_xpath "http://ns.adobe.com/XPath/1.0/">
]>
<svg version="1.1" id="Capa_1" xmlns:x="&ns_extend;" xmlns:i="&ns_ai;" xmlns:graph="&ns_graphs;"
	 xmlns="http://www.w3.org/2000/svg" xmlns:xlink="http://www.w3.org/1999/xlink" x="0px" y="0px" viewBox="0 0 100 100"
	 style="enable-background:new 0 0 100 100;" xml:space="preserve">
<style type="text/css">
	.Sombra_x0020_paralela{fill:none;}
	.Resplandor_x0020_externo_x0020_5_x0020_pt_x002E_{fill:none;}
	.Neón_x0020_azul{fill:none;stroke:#8AACDA;stroke-width:7;stroke-linecap:round;stroke-linejoin:round;}
	.Resalte_x0020_cromado{fill:url(#SVGID_1_);stroke:#FFFFFF;stroke-width:0.3629;stroke-miterlimit:1;}
	.A_x0020_todo_x0020_ritmo_GS{fill:#FFDD00;}
	.Alyssa_GS{fill:#A6D0E4;}
	.st0{fill:#253238;}
</style>
<metadata>
	<sfw  xmlns="&ns_sfw;">
		<slices></slices>
		<sliceSourceBounds  bottomLeftOrigin="true" height="87.2" width="97" x="2" y="-89.2"></sliceSourceBounds>
	</sfw>
</metadata>
<linearGradient id="SVGID_1_" gradientUnits="userSpaceOnUse" x1="0" y1="0" x2="6.123234e-17" y2="-1">
	<stop  offset="0" style="stop-color:#656565"/>
	<stop  offset="0.618" style="stop-color:#1B1B1B"/>
	<stop  offset="0.6292" style="stop-color:#545454"/>
	<stop  offset="0.9831" style="stop-color:#3E3E3E"/>
</linearGradient>
<g>
	<path class="st0" d="M99,32.5c-0.3,1.9-0.5,3.7-0.8,5.6c-1.2,6.1-3.7,11.8-7,17c-5,8-11.6,14.6-18.9,20.4
		c-6.2,5-12.8,9.4-19.9,13.1c-1.3,0.7-2.5,0.7-3.8,0c-11.9-6.4-22.7-14.2-31.8-24.3c-5.6-6.2-10-13.1-12.6-21.1
		c-1-3.1-1.7-6.3-2-9.5c0-0.4-0.1-0.8-0.2-1.2c0-1.5,0-3,0-4.5c0-0.2,0.1-0.4,0.1-0.5C2.6,23,3.9,18.8,6.4,15
		C11.2,7.6,18.1,3.2,26.9,2.2c7.8-0.9,14.7,1.3,20.8,6.3c0.9,0.8,1.8,1.6,2.9,2.6c0.5-0.5,0.9-1.1,1.4-1.6c2.4-2.2,5-4,8-5.2
		c8-3.3,16-3.1,23.7,0.8c7.1,3.7,11.9,9.5,14.1,17.2c0.5,1.8,0.8,3.8,1.1,5.6C99,29.5,99,31,99,32.5z M7.8,30.7
		c0,3.8,0.8,7.9,2.2,11.8c2.7,7.4,7,13.7,12.4,19.4c8,8.5,17.3,15.3,27.4,20.9c0.5,0.3,0.8,0.3,1.3,0c10.2-5.7,19.6-12.5,27.6-21.1
		c6-6.5,10.8-13.6,13.2-22.3c1.1-3.9,1.6-7.9,1.2-11.9c-0.7-6.6-3.8-11.9-9.3-15.7C77.1,7.3,70,6.6,62.5,9.6
		c-3.7,1.5-6.8,3.8-9.1,7.1c-1.7,2.4-4.2,2.6-5.9-0.1c0-0.1-0.1-0.1-0.1-0.1C41.3,9.1,33.5,6.4,24.2,8.7C14.5,11,7.5,20.4,7.8,30.7z
		"/>
</g>
</svg>
