<?xml version="1.0" encoding="utf-8"?>
<!-- Generator: Adobe Illustrator 24.0.2, SVG Export Plug-In . SVG Version: 6.00 Build 0)  -->
<!DOCTYPE svg PUBLIC "-//W3C//DTD SVG 1.1//EN" "http://www.w3.org/Graphics/SVG/1.1/DTD/svg11.dtd" [
	<!ENTITY ns_extend "http://ns.adobe.com/Extensibility/1.0/">
	<!ENTITY ns_ai "http://ns.adobe.com/AdobeIllustrator/10.0/">
	<!ENTITY ns_graphs "http://ns.adobe.com/Graphs/1.0/">
	<!ENTITY ns_vars "http://ns.adobe.com/Variables/1.0/">
	<!ENTITY ns_imrep "http://ns.adobe.com/ImageReplacement/1.0/">
	<!ENTITY ns_sfw "http://ns.adobe.com/SaveForWeb/1.0/">
	<!ENTITY ns_custom "http://ns.adobe.com/GenericCustomNamespace/1.0/">
	<!ENTITY ns_adobe_xpath "http://ns.adobe.com/XPath/1.0/">
]>
<svg version="1.1" id="Capa_1" xmlns:x="&ns_extend;" xmlns:i="&ns_ai;" xmlns:graph="&ns_graphs;"
	 xmlns="http://www.w3.org/2000/svg" xmlns:xlink="http://www.w3.org/1999/xlink" x="0px" y="0px" viewBox="0 0 100 100"
	 style="enable-background:new 0 0 100 100;" xml:space="preserve">
<style type="text/css">
	.Sombra_x0020_paralela{fill:none;}
	.Resplandor_x0020_externo_x0020_5_x0020_pt_x002E_{fill:none;}
	.Neón_x0020_azul{fill:none;stroke:#8AACDA;stroke-width:7;stroke-linecap:round;stroke-linejoin:round;}
	.Resalte_x0020_cromado{fill:url(#SVGID_1_);stroke:#FFFFFF;stroke-width:0.3629;stroke-miterlimit:1;}
	.A_x0020_todo_x0020_ritmo_GS{fill:#FFDD00;}
	.Alyssa_GS{fill:#A6D0E4;}
	.st0{fill:#5B3289;}
</style>
<metadata>
	<sfw  xmlns="&ns_sfw;">
		<slices></slices>
		<sliceSourceBounds  bottomLeftOrigin="true" height="97" width="97" x="2" y="-99"></sliceSourceBounds>
	</sfw>
</metadata>
<linearGradient id="SVGID_1_" gradientUnits="userSpaceOnUse" x1="0" y1="0" x2="6.123234e-17" y2="-1">
	<stop  offset="0" style="stop-color:#656565"/>
	<stop  offset="0.618" style="stop-color:#1B1B1B"/>
	<stop  offset="0.6292" style="stop-color:#545454"/>
	<stop  offset="0.9831" style="stop-color:#3E3E3E"/>
</linearGradient>
<g>
	<g>
		<path class="st0" d="M2,43.1c0-0.6,0-1.1,0-1.7c0.4-1.7,0.8-3.4,1.3-5C5.6,28.7,9.5,22,15,16.3C20.4,10.7,26.7,6.6,34,4
			c2.3-0.8,4.7-1.4,7-2c0.9,0,1.8,0,2.7,0c0.1,0.1,0.3,0.1,0.4,0.2c2.1,0.4,3.9,1.4,5.4,2.9c0.4,0.4,0.7,0.8,1.1,1.3
			c1.2-1.7,2.7-3,4.7-3.8C56,2.4,56.7,2.2,57.5,2c0.8,0,1.6,0,2.5,0c0.1,0.1,0.2,0.1,0.3,0.2c7.8,1.6,14.8,4.8,21,9.8
			c9.3,7.4,15.1,17,17.6,28.7c0.4,1.8,0.2,3.6-0.5,5.4c-0.8,1.9-2,3.3-3.8,4.6c0.2,0.1,0.3,0.1,0.4,0.2c3.7,2.8,4.7,6.5,3.6,10.9
			c-2.3,9.5-6.9,17.6-13.9,24.4C78,92.5,70,96.7,60.9,98.7c-3.4,0.8-6.4-0.1-9-2.5c-0.5-0.5-1-1-1.5-1.6c-0.2,0.2-0.3,0.3-0.4,0.5
			c-2.5,3.1-5.8,4.4-9.7,3.7c-1.4-0.2-2.7-0.6-4-1C28.7,95.4,22,91.5,16.3,86c-5.6-5.4-9.7-11.7-12.2-19c-0.8-2.4-1.4-5-2.1-7.4
			c0-0.6,0-1.1,0-1.7c0.1-0.2,0.1-0.4,0.2-0.5c0.3-2.3,1.4-4.2,3.1-5.8c0.4-0.4,0.8-0.7,1-0.8c-1.1-1.4-2.3-2.7-3.1-4.1
			C2.5,45.5,2.4,44.3,2,43.1z M42.9,36c-1.3-3.1-2.6-6.3-3.9-9.5c-0.6-1.4-1.1-2.7-1.6-4.1c-0.3-0.8,0.1-1.6,0.8-2
			c0.8-0.4,1.6,0,2.1,0.8c0.1,0.2,0.2,0.5,0.3,0.8c1.8,4.4,3.6,8.9,5.4,13.3c0.1,0.3,0.3,0.6,0.4,0.9c0.8-0.5,1.5-0.9,2.1-1.4
			c0.2-0.2,0.3-0.5,0.3-0.8c0-7.3,0.1-14.6,0-21.9c-0.1-4.6-3.7-7.6-8.1-6.6C33,7.1,26.1,10.6,20.1,15.8c-7.6,6.7-12.4,15-14.6,24.8
			c-0.4,1.8-0.2,3.4,0.8,5c1.4,2.3,3.6,3.2,6.2,3.2c6.7,0,13.4,0,20.1,0c1.2,0,2.4,0.2,2.9-1.3c0-0.1,0.1-0.1,0.2-0.2
			c0.7-0.8,0.7-0.9-0.3-1.3c-4.4-1.8-8.9-3.6-13.3-5.4c-0.3-0.1-0.7-0.3-1-0.5c-0.6-0.4-0.9-1-0.6-1.6c0.2-0.5,0.7-0.9,1.2-1.2
			c0.4-0.2,0.9,0,1.3,0.2c3.1,1.2,6.2,2.5,9.4,3.8c1.3,0.5,2.6,1,3.8,1.5c0.8-0.8,1.5-1.6,2.3-2.4c-0.2-0.2-0.6-0.3-0.8-0.6
			c-5.1-5.1-10.3-10.3-15.4-15.4c-0.9-0.9-1-1.9-0.2-2.6c0.7-0.7,1.6-0.6,2.5,0.3c0.2,0.2,0.3,0.3,0.5,0.5c5,5,10,9.9,14.9,14.9
			c0.2,0.2,0.5,0.5,0.7,0.6C41.3,37.4,42.1,36.8,42.9,36z M36.2,54.5c-0.4-0.6-0.9-1-1.1-1.5c-0.3-0.8-0.8-0.9-1.5-0.9
			c-6.7,0-13.4,0-20.2,0c-0.6,0-1.2,0-1.8,0c-4.2,0.3-6.9,3.9-6.1,8c1.2,5.5,3.3,10.7,6.4,15.4C18.8,86,28.4,92.6,40.6,95.5
			c2.6,0.6,4.9,0,6.7-2.1c1.3-1.4,1.7-3.1,1.7-5c0-6.7,0-13.4,0-20.1c0-1.2,0.1-2.4-1.3-2.8c-0.1,0-0.1-0.1-0.2-0.2
			c-0.9-0.8-1-0.8-1.4,0.3c-1.8,4.6-3.7,9.1-5.5,13.7c-0.5,1.2-1.2,1.6-2.2,1.2c-1-0.4-1.3-1.3-0.8-2.4c0.6-1.4,1.2-2.9,1.7-4.3
			c1.2-3,2.5-6.1,3.4-8.5c-0.9-1-1.6-1.8-2.3-2.7c-0.1,0.1-0.3,0.4-0.5,0.6c-5.1,5.1-10.1,10.1-15.2,15.2c-0.2,0.2-0.4,0.5-0.7,0.7
			c-0.7,0.5-1.6,0.5-2.1-0.1c-0.6-0.6-0.6-1.5-0.1-2.1c0.2-0.2,0.4-0.5,0.7-0.7c5-5,10.1-10.1,15.1-15.1c0.2-0.2,0.5-0.5,0.6-0.7
			c-0.7-0.8-1.4-1.6-2.1-2.4c-0.2,0.1-0.5,0.2-0.8,0.3c-4.1,1.7-8.2,3.3-12.3,5c-1.1,0.5-2,0.2-2.4-0.7c-0.4-0.9,0-1.8,1.2-2.3
			c1.3-0.5,2.6-1,3.9-1.6C29,57.4,32.6,55.9,36.2,54.5z M64.8,46.4c0.5,0.7,1,1.2,1.3,1.8c0.3,0.6,0.6,0.7,1.2,0.7
			c7.1,0,14.1,0,21.2,0c0.3,0,0.7,0,1-0.1c4.1-0.3,6.9-3.9,6-7.9c-1.4-6.7-4.1-12.8-8.3-18.2C80.5,13.7,71.5,8,60.5,5.5
			c-4.3-1-8.3,1.9-8.3,6.4c-0.1,7.4,0,14.8,0,22.1c0,0.2,0,0.6,0.2,0.7c0.7,0.5,1.4,0.9,2.1,1.5c0.1-0.3,0.3-0.6,0.4-0.9
			c1.8-4.5,3.6-8.9,5.4-13.4c0.1-0.2,0.2-0.4,0.2-0.6c0.4-0.9,1.3-1.3,2.1-0.9c0.8,0.3,1.2,1.2,0.9,2.1c-0.8,2.1-1.7,4.3-2.6,6.4
			c-1,2.4-2,4.8-2.9,7.1c0.8,0.8,1.6,1.5,2.5,2.2c0.2-0.2,0.4-0.5,0.6-0.8c5-5,10-10,15-15c1.2-1.2,2.1-1.4,2.9-0.6
			c0.8,0.8,0.6,1.7-0.7,2.9c-5,5-10,10-15,15c-0.2,0.2-0.6,0.4-0.8,0.5c0.9,1,1.6,1.8,2.3,2.6c0.3-0.1,0.6-0.2,1-0.4
			c4-1.6,8-3.2,12-4.9c0.3-0.1,0.6-0.3,1-0.3c0.8-0.1,1.4,0.2,1.7,1c0.3,0.8,0,1.4-0.6,1.9c-0.3,0.2-0.6,0.3-0.9,0.5
			c-3,1.2-6.1,2.5-9.1,3.7C68.2,44.9,66.6,45.6,64.8,46.4z M62.7,60.5c0.2,0.2,0.5,0.4,0.8,0.7c5,5,10.1,10.1,15.1,15.1
			c0.2,0.2,0.5,0.5,0.7,0.8c0.5,0.7,0.4,1.5-0.2,2.1c-0.6,0.6-1.4,0.6-2.1,0.1c-0.3-0.2-0.5-0.5-0.8-0.7c-5-5-10.1-10.1-15.1-15.1
			c-0.2-0.2-0.3-0.6-0.4-0.8c-1.1,0.9-1.8,1.6-2.7,2.3c1.7,4.2,3.4,8.4,5.1,12.7c0.2,0.4,0.3,0.8,0.4,1.2c0.2,0.8-0.2,1.4-0.9,1.7
			c-0.7,0.3-1.4,0.2-1.9-0.4c-0.3-0.3-0.4-0.7-0.6-1.1c-1.8-4.5-3.6-9-5.5-13.5c-0.1-0.2-0.2-0.5-0.3-0.7c-0.7,0.5-1.3,0.8-1.8,1.3
			c-0.2,0.2-0.5,0.6-0.5,0.8c0,7.4-0.1,14.8,0,22.1c0,4.2,3.5,7.1,7.7,6.4c2.4-0.4,4.8-1.2,7.1-2c8.2-3.1,15-8.2,20.3-15.1
			c4.2-5.5,7-11.6,8.4-18.4c0.8-3.9-2-7.7-5.9-7.8c-7.6-0.2-15.2-0.1-22.8-0.1c-0.2,0-0.5,0.1-0.6,0.3c-0.5,0.6-0.9,1.3-1.4,2.1
			c0.3,0.1,0.6,0.3,0.9,0.4c4.2,1.7,8.3,3.4,12.5,5.1c0.6,0.2,1.1,0.4,1.6,0.7c0.8,0.4,1,1.1,0.7,1.9c-0.3,0.8-1,1.2-1.9,1
			c-0.3-0.1-0.7-0.2-1-0.3c-4-1.6-8.1-3.3-12.1-4.9c-0.3-0.1-0.6-0.2-0.7-0.3C64.2,58.9,63.6,59.6,62.7,60.5z M40.8,43.3
			c-0.1-0.1-0.1-0.1-0.2-0.2c-0.5,0.4-1.1,0.6-1.4,1.1c-0.4,0.6-0.2,1.3,0.3,1.9c1.1,1.3,0.8,2.4-0.7,2.9c-0.8,0.3-1.3,0.7-1.3,1.6
			c0,0.9,0.5,1.3,1.3,1.6c1.4,0.5,1.7,1.6,0.8,2.8c-0.5,0.6-0.8,1.3-0.3,2.1c0.4,0.7,1.1,0.9,2,0.7c1.5-0.3,2.3,0.6,2.1,2.1
			c-0.2,1.4,0.8,2.4,2,2c0.3-0.1,0.6-0.3,0.9-0.6c1.1-0.9,2.2-0.6,2.7,0.7c0.3,0.8,0.7,1.4,1.7,1.4c1,0,1.3-0.6,1.6-1.5
			c0.4-1.2,1.6-1.6,2.6-0.7c0.7,0.6,1.4,0.9,2.2,0.4c0.8-0.5,0.8-1.2,0.6-2.1c-0.3-1.3,0.7-2.2,1.9-1.9c0.2,0,0.4,0.1,0.6,0.1
			c0.5-0.2,1.2-0.4,1.6-0.8c0.5-0.5,0.3-1.2-0.1-1.7c-1.3-1.7-1.1-2.4,0.8-3.2c0.7-0.3,1.2-0.8,1-1.5c-0.1-0.5-0.5-1.2-1-1.4
			c-1.8-0.9-2-1.5-0.8-3.3c0.3-0.4,0.3-1.2,0.1-1.7c-0.2-0.7-0.9-0.9-1.6-0.8c-1.9,0.3-2.5-0.3-2.3-2.3c0.1-0.7-0.1-1.3-0.8-1.7
			c-0.7-0.4-1.3-0.2-1.9,0.2c-1.4,1.2-2.3,0.9-3-0.8c-0.3-0.7-0.8-1.1-1.6-1.1c-0.8,0-1.2,0.4-1.5,1.1c-0.7,1.8-1.6,2-3.1,0.8
			c-0.6-0.5-1.2-0.6-1.8-0.2c-0.7,0.4-0.9,0.9-0.8,1.7c0,0.2,0.1,0.4,0.1,0.6c0.2,1.2-0.7,2.1-2,1.9C41.2,43.3,41,43.3,40.8,43.3z"
			/>
		<path class="st0" d="M56.7,46.2c-0.2,0.6,0.1,0.9,0.7,1.1c1.2,0.5,1.5,1.5,0.7,2.5c-0.4,0.5-0.4,0.8,0,1.3c0.8,1,0.5,2.1-0.7,2.6
			c-0.6,0.2-0.7,0.6-0.6,1.1c0.1,1.3-0.6,2-1.9,1.9c-0.5-0.1-0.8,0-1,0.5c-0.6,1.3-1.5,1.6-2.7,0.8c-0.4-0.3-0.7-0.3-1.2,0
			c-1.1,0.8-2.1,0.6-2.6-0.7c-0.2-0.6-0.6-0.6-1.1-0.6c-1.4,0.1-2.1-0.6-1.9-2c0.1-0.6-0.2-0.8-0.6-1c-1.3-0.5-1.6-1.5-0.7-2.6
			c0.3-0.5,0.3-0.8,0-1.2c-0.8-1-0.5-2.1,0.7-2.6c0.6-0.2,0.7-0.5,0.6-1.1c-0.2-1.2,0.7-2.1,1.9-1.9c0.6,0.1,0.8-0.1,1.1-0.6
			c0.5-1.2,1.6-1.5,2.6-0.8c0.5,0.4,0.8,0.4,1.3,0c1-0.8,2.1-0.5,2.6,0.7c0.2,0.5,0.5,0.7,1.1,0.6C56.1,44.1,56.8,44.8,56.7,46.2z
			 M46.6,50.4c-0.4,1.4,0.5,2.4,1.3,3.2c0.9,0.8,2.2,1.1,3.4,0.9c0.8-0.2,1.6-0.5,2.1-1.1c0.9-1,1.4-2.4,1.1-3.8
			c-0.1-0.8-0.5-1.6-1.1-2.1c-1-0.9-2.4-1.4-3.8-1.1c-0.8,0.2-1.7,0.5-2.1,1.1C47.1,48.4,46.1,49.2,46.6,50.4z"/>
	</g>
</g>
</svg>
