<?xml version="1.0" encoding="utf-8"?>
<!-- Generator: Adobe Illustrator 24.0.2, SVG Export Plug-In . SVG Version: 6.00 Build 0)  -->
<!DOCTYPE svg PUBLIC "-//W3C//DTD SVG 1.1//EN" "http://www.w3.org/Graphics/SVG/1.1/DTD/svg11.dtd" [
	<!ENTITY ns_extend "http://ns.adobe.com/Extensibility/1.0/">
	<!ENTITY ns_ai "http://ns.adobe.com/AdobeIllustrator/10.0/">
	<!ENTITY ns_graphs "http://ns.adobe.com/Graphs/1.0/">
	<!ENTITY ns_vars "http://ns.adobe.com/Variables/1.0/">
	<!ENTITY ns_imrep "http://ns.adobe.com/ImageReplacement/1.0/">
	<!ENTITY ns_sfw "http://ns.adobe.com/SaveForWeb/1.0/">
	<!ENTITY ns_custom "http://ns.adobe.com/GenericCustomNamespace/1.0/">
	<!ENTITY ns_adobe_xpath "http://ns.adobe.com/XPath/1.0/">
]>
<svg version="1.1" id="Capa_1" xmlns:x="&ns_extend;" xmlns:i="&ns_ai;" xmlns:graph="&ns_graphs;"
	 xmlns="http://www.w3.org/2000/svg" xmlns:xlink="http://www.w3.org/1999/xlink" x="0px" y="0px" viewBox="0 0 100 100"
	 style="enable-background:new 0 0 100 100;" xml:space="preserve">
<style type="text/css">
	.Sombra_x0020_paralela{fill:none;}
	.Resplandor_x0020_externo_x0020_5_x0020_pt_x002E_{fill:none;}
	.Neón_x0020_azul{fill:none;stroke:#8AACDA;stroke-width:7;stroke-linecap:round;stroke-linejoin:round;}
	.Resalte_x0020_cromado{fill:url(#SVGID_1_);stroke:#FFFFFF;stroke-width:0.3629;stroke-miterlimit:1;}
	.A_x0020_todo_x0020_ritmo_GS{fill:#FFDD00;}
	.Alyssa_GS{fill:#A6D0E4;}
	.st0{fill:#5B3289;}
</style>
<metadata>
	<sfw  xmlns="&ns_sfw;">
		<slices></slices>
		<sliceSourceBounds  bottomLeftOrigin="true" height="97" width="61.1" x="11.7" y="-99"></sliceSourceBounds>
	</sfw>
</metadata>
<linearGradient id="SVGID_1_" gradientUnits="userSpaceOnUse" x1="0" y1="0" x2="6.123234e-17" y2="-1">
	<stop  offset="0" style="stop-color:#656565"/>
	<stop  offset="0.618" style="stop-color:#1B1B1B"/>
	<stop  offset="0.6292" style="stop-color:#545454"/>
	<stop  offset="0.9831" style="stop-color:#3E3E3E"/>
</linearGradient>
<g>
	<g>
		<path class="st0" d="M21.4,99c-0.5-0.6-1.2-1.2-1.5-1.9c-2.6-4.9-5.1-9.8-7.8-14.7c-0.7-1.3-0.6-2.3,0.3-3.4
			c1.8-2.3,13-16.8,14.7-19.1c0.6-0.7,1.2-1.2,2.2-1c1.3,0.3,1.9,1.8,1.1,3C29.7,62.9,19.6,76,18.8,77c-0.9,1.1-1.8,2.3-2.7,3.4
			c-0.2,0.3-0.3,0.8-0.1,1.1c2,3.9,4.1,7.9,6.2,11.8c0.1,0.1,0.1,0.2,0.3,0.4c1.5-1.9,3-3.7,4.4-5.6C37.5,74,46.9,59.2,55,43.5
			c2.4-4.6,4-9.4,4.1-14.7c0.1-3.5-1.9-5.4-4.4-7.2c-0.7,1.8-1.4,3.5-2.1,5.1c-3.5,8-8,15.5-13,22.6c-2.9,4.1-5.8,8.1-8.8,12.1
			c-0.1,0.2-0.2,0.3-0.3,0.5c-0.8,0.9-1.9,1.1-2.8,0.5c-0.9-0.6-1.1-1.8-0.4-2.8c0.9-1.3,1.8-2.6,2.8-3.8c0.9-1.1,0.8-1.8,0.2-3
			c-2.1-3.8-4.2-7.6-6-11.5c-2-4.4-3-9.1-2.6-14c0.1-1.8,0.6-3.6,1.2-5.3c1.5-4.1,3-8.2,4.7-12.2c1.1-2.7,3.3-4.5,5.9-5.7
			c6.4-2.8,12.8-2.7,19,0.8c2,1.1,3.5,2.7,4.4,4.8c2.3,5,4.2,10.2,5.6,15.6c0.6,2.4,0.4,4.9,0.1,7.3c-0.6,4.5-2.1,8.7-4.2,12.7
			c-1.5,2.8-3,5.6-4.6,8.3c-0.3,0.6-0.3,0.9,0.1,1.4c6,7.9,12,15.9,18,23.8c1,1.3,1.1,2.3,0.4,3.8c-2.7,4.9-5.2,9.8-7.8,14.8
			c-0.4,0.7-1,1.1-1.5,1.7c-0.3,0-0.6,0-0.9,0c-1.1-1.2-2.4-2.3-3.4-3.6c-5.7-7-10.7-14.5-15.7-22c-0.2-0.3-0.4-0.6-0.6-0.9
			c-0.3,0.4-0.5,0.7-0.7,1c-5.5,8.3-11,16.5-17.4,24.1c-0.5,0.5-1,1-1.5,1.5C22.2,99,21.8,99,21.4,99z M62,93.8
			c0.2-0.4,0.4-0.7,0.5-1c1.9-3.7,3.9-7.4,5.8-11c0.3-0.6,0.3-1-0.1-1.6c-5.5-7.2-10.9-14.4-16.4-21.6c-0.2-0.2-0.4-0.4-0.6-0.7
			c-0.2,0.3-0.3,0.5-0.5,0.7c-2,3.2-3.9,6.3-5.9,9.5c-0.4,0.6-0.3,1,0,1.5c3.2,4.8,6.4,9.6,9.7,14.3C57,87.3,59.5,90.4,62,93.8z
			 M29.7,21.5c-1.1,1-2.1,1.9-3,2.9c-0.8,0.9-1.2,2-1.3,3.3c-0.2,3.2,0.4,6.2,1.3,9.2c1.5,4.9,4.2,9.3,6.7,13.8
			c0,0.1,0.1,0.1,0.3,0.1c2-2.8,3.9-5.6,5.9-8.4c0.4-0.5,0.4-0.9,0-1.4c-3.1-4.6-5.6-9.6-7.8-14.7C31,24.8,30.4,23.3,29.7,21.5z
			 M51.2,19.9c-6.1-2-12-2-18.1,0c2.3,6.5,5.4,12.5,9,18.4C45.9,32.4,48.9,26.4,51.2,19.9z M55.8,17.8c-0.7-2-1.5-3.9-2.1-5.8
			c-0.6-1.8-1.8-3.1-3.4-4C45.7,5.4,40.9,5.2,35.9,7c-1.9,0.7-3.7,1.7-4.6,3.7c-1,2.3-1.8,4.7-2.7,7.1
			C37.7,13.5,46.6,13.5,55.8,17.8z"/>
	</g>
</g>
</svg>
