<?xml version="1.0" encoding="utf-8"?>
<!-- Generator: Adobe Illustrator 24.0.2, SVG Export Plug-In . SVG Version: 6.00 Build 0)  -->
<!DOCTYPE svg PUBLIC "-//W3C//DTD SVG 1.1//EN" "http://www.w3.org/Graphics/SVG/1.1/DTD/svg11.dtd" [
	<!ENTITY ns_extend "http://ns.adobe.com/Extensibility/1.0/">
	<!ENTITY ns_ai "http://ns.adobe.com/AdobeIllustrator/10.0/">
	<!ENTITY ns_graphs "http://ns.adobe.com/Graphs/1.0/">
	<!ENTITY ns_vars "http://ns.adobe.com/Variables/1.0/">
	<!ENTITY ns_imrep "http://ns.adobe.com/ImageReplacement/1.0/">
	<!ENTITY ns_sfw "http://ns.adobe.com/SaveForWeb/1.0/">
	<!ENTITY ns_custom "http://ns.adobe.com/GenericCustomNamespace/1.0/">
	<!ENTITY ns_adobe_xpath "http://ns.adobe.com/XPath/1.0/">
]>
<svg version="1.1" id="Capa_1" xmlns:x="&ns_extend;" xmlns:i="&ns_ai;" xmlns:graph="&ns_graphs;"
	 xmlns="http://www.w3.org/2000/svg" xmlns:xlink="http://www.w3.org/1999/xlink" x="0px" y="0px" viewBox="0 0 100 100"
	 style="enable-background:new 0 0 100 100;" xml:space="preserve">
<style type="text/css">
	.Sombra_x0020_paralela{fill:none;}
	.Resplandor_x0020_externo_x0020_5_x0020_pt_x002E_{fill:none;}
	.Neón_x0020_azul{fill:none;stroke:#8AACDA;stroke-width:7;stroke-linecap:round;stroke-linejoin:round;}
	.Resalte_x0020_cromado{fill:url(#SVGID_1_);stroke:#FFFFFF;stroke-width:0.3629;stroke-miterlimit:1;}
	.A_x0020_todo_x0020_ritmo_GS{fill:#FFDD00;}
	.Alyssa_GS{fill:#A6D0E4;}
	.st0{fill:#5B3289;}
</style>
<metadata>
	<sfw  xmlns="&ns_sfw;">
		<slices></slices>
		<sliceSourceBounds  bottomLeftOrigin="true" height="84.6" width="98" x="1" y="-85.8"></sliceSourceBounds>
	</sfw>
</metadata>
<linearGradient id="SVGID_1_" gradientUnits="userSpaceOnUse" x1="0" y1="0" x2="6.123234e-17" y2="-1">
	<stop  offset="0" style="stop-color:#656565"/>
	<stop  offset="0.618" style="stop-color:#1B1B1B"/>
	<stop  offset="0.6292" style="stop-color:#545454"/>
	<stop  offset="0.9831" style="stop-color:#3E3E3E"/>
</linearGradient>
<g>
	<g>
		<path class="st0" d="M2.1,85.8c-0.3-0.2-0.7-0.4-0.8-0.7c-0.2-0.6-0.4-1.2-0.2-1.8c0.2-0.8,1-1.1,1.8-1.1c1.6,0,3.3,0,4.9,0
			c0.4,0,0.8,0,1.4,0c0-0.4,0-0.8,0-1.2c0-6.7,0-13.4,0-20.1c0-1.4,0.5-2.2,1.8-2.8c3.4-1.5,6.7-3.1,10.1-4.7
			c0.7-0.3,0.9-0.7,0.9-1.5c-0.1-1.9,0-3.9,0-5.8c0-1.1,0.4-1.8,1.5-2.3c3.4-1.7,6.7-3.4,10.1-5c0.6-0.3,0.8-0.6,0.8-1.3
			c0-5.5,0-11,0-16.5c0-1.1,0.3-2,1-2.9c4.1-5,8.2-10.1,12.2-15.2c1.4-1.9,3.3-2.2,5-0.1c4.1,5.1,8.1,10.2,12.2,15.2
			c0.8,0.9,1.1,1.9,1.1,3.1c0,5.5,0,11,0,16.4c0,0.7,0.2,1,0.8,1.3c3.4,1.6,6.7,3.4,10,5c1.1,0.5,1.6,1.3,1.5,2.5c0,1.9,0,3.8,0,5.7
			c0,0.7,0.2,1.1,0.9,1.5c3.4,1.5,6.8,3.2,10.2,4.7c1.2,0.5,1.7,1.3,1.7,2.6c0,6.7,0,13.4,0,20.1c0,0.4,0,0.8,0,1.3
			c1.9,0,3.7,0,5.4,0c0.4,0,0.9-0.1,1.2,0.1c0.6,0.4,1.2,0.8,1.5,1.4c0.3,0.7,0,1.4-0.7,1.9c-0.2,0.1-0.3,0.2-0.5,0.4
			C65.9,85.8,34,85.8,2.1,85.8z M41.9,82.1c0-0.5,0-0.8,0-1.2c0-5,0-9.9,0-14.9c0-2.3,1-4,2.9-5.1c2.3-1.4,4.8-1.7,7.4-1.1
			c4,0.9,5.7,3,5.7,7.1c0,4.7,0,9.5,0,14.2c0,0.4,0,0.7,0,1.1c5.6,0,11,0,16.4,0c0-0.3,0-0.5,0-0.7c0-11.3,0-22.6,0-33.9
			c0-0.6-0.3-0.9-0.8-1.1c-3.3-1.6-6.6-3.3-10-4.9c-1.2-0.6-1.7-1.4-1.7-2.7c0-5.8,0-11.6,0-17.4c0-0.5-0.2-1.1-0.5-1.5
			c-3.6-4.6-7.3-9.1-10.9-13.6c-0.2-0.2-0.4-0.4-0.7-0.7c-0.1,0.2-0.2,0.3-0.3,0.4C45.8,10.6,42,15.3,38.2,20
			c-0.3,0.3-0.4,0.9-0.4,1.3c0,5.8,0,11.6,0,17.5c0,1.2-0.4,2-1.5,2.5c-3.3,1.6-6.6,3.3-10,4.9c-0.7,0.3-0.9,0.7-0.9,1.5
			c0,11.1,0,22.2,0,33.3c0,0.4,0,0.7,0.1,1.1C31,82.1,36.4,82.1,41.9,82.1z M21.8,56.9c-2.8,1.3-5.5,2.6-8.2,3.8
			c-0.7,0.3-0.9,0.7-0.9,1.4c0,6.3,0,12.7,0,19c0,0.3,0,0.6,0,0.9c3.1,0,6.1,0,9,0C21.8,73.7,21.8,65.4,21.8,56.9z M78.1,57
			c0,8.4,0,16.7,0,25c3,0,6,0,8.9,0c0-0.2,0.1-0.3,0.1-0.4c0-6.6,0-13.3,0-19.9c0-0.3-0.4-0.8-0.7-0.9c-2.1-1-4.2-2-6.4-3
			C79.4,57.6,78.8,57.3,78.1,57z M54.2,82c0-5.4,0-10.7,0-16c0-1.2-0.5-1.9-1.5-2.3c-1.9-0.9-3.8-0.9-5.7,0c-1,0.5-1.5,1.2-1.5,2.4
			c0.1,5,0,9.9,0,14.9c0,0.3,0,0.7,0,1C48.5,82,51.3,82,54.2,82z"/>
		<path class="st0" d="M49.9,33.7c-4.4,0-8-3.6-8-8c0-4.4,3.6-8,8-8c4.4,0,8,3.6,8,8C57.9,30.1,54.3,33.7,49.9,33.7z M50,30
			c2.4,0,4.3-2,4.3-4.4c0-2.4-2-4.3-4.4-4.3c-2.3,0-4.2,2-4.2,4.3C45.6,28.2,47.5,30.1,50,30z"/>
	</g>
</g>
</svg>
