<?xml version="1.0" encoding="utf-8"?>
<!-- Generator: Adobe Illustrator 24.0.2, SVG Export Plug-In . SVG Version: 6.00 Build 0)  -->
<!DOCTYPE svg PUBLIC "-//W3C//DTD SVG 1.1//EN" "http://www.w3.org/Graphics/SVG/1.1/DTD/svg11.dtd" [
	<!ENTITY ns_extend "http://ns.adobe.com/Extensibility/1.0/">
	<!ENTITY ns_ai "http://ns.adobe.com/AdobeIllustrator/10.0/">
	<!ENTITY ns_graphs "http://ns.adobe.com/Graphs/1.0/">
	<!ENTITY ns_vars "http://ns.adobe.com/Variables/1.0/">
	<!ENTITY ns_imrep "http://ns.adobe.com/ImageReplacement/1.0/">
	<!ENTITY ns_sfw "http://ns.adobe.com/SaveForWeb/1.0/">
	<!ENTITY ns_custom "http://ns.adobe.com/GenericCustomNamespace/1.0/">
	<!ENTITY ns_adobe_xpath "http://ns.adobe.com/XPath/1.0/">
]>
<svg version="1.1" id="Capa_1" xmlns:x="&ns_extend;" xmlns:i="&ns_ai;" xmlns:graph="&ns_graphs;"
	 xmlns="http://www.w3.org/2000/svg" xmlns:xlink="http://www.w3.org/1999/xlink" x="0px" y="0px" viewBox="0 0 100 100"
	 style="enable-background:new 0 0 100 100;" xml:space="preserve">
<style type="text/css">
	.Sombra_x0020_paralela{fill:none;}
	.Resplandor_x0020_externo_x0020_5_x0020_pt_x002E_{fill:none;}
	.Neón_x0020_azul{fill:none;stroke:#8AACDA;stroke-width:7;stroke-linecap:round;stroke-linejoin:round;}
	.Resalte_x0020_cromado{fill:url(#SVGID_1_);stroke:#FFFFFF;stroke-width:0.3629;stroke-miterlimit:1;}
	.A_x0020_todo_x0020_ritmo_GS{fill:#FFDD00;}
	.Alyssa_GS{fill:#A6D0E4;}
	.st0{fill:#FFFFFF;}
	.st1{fill:#5B3289;}
</style>
<metadata>
	<sfw  xmlns="&ns_sfw;">
		<slices></slices>
		<sliceSourceBounds  bottomLeftOrigin="true" height="95.4" width="95.3" x="1.7" y="-98"></sliceSourceBounds>
	</sfw>
</metadata>
<linearGradient id="SVGID_1_" gradientUnits="userSpaceOnUse" x1="0" y1="0" x2="6.123234e-17" y2="-1">
	<stop  offset="0" style="stop-color:#656565"/>
	<stop  offset="0.618" style="stop-color:#1B1B1B"/>
	<stop  offset="0.6292" style="stop-color:#545454"/>
	<stop  offset="0.9831" style="stop-color:#3E3E3E"/>
</linearGradient>
<g>
	<path class="st0" d="M52.3,98c-2,0-4,0-6,0c-0.2-0.1-0.4-0.1-0.6-0.2c-4.1-0.3-8-1.1-11.8-2.4C16.6,89,6.1,76.7,2.4,58.7
		c-0.3-1.8-0.5-3.6-0.7-5.4c0-2,0-4,0-6c0.1-0.3,0.1-0.6,0.2-0.8c0.3-2.2,0.5-4.3,1-6.6c5.7-26.1,32.2-42.5,58-36
		c24.8,6.3,40.2,30.4,35.2,55.5c-3.8,19.2-19.2,34.4-38.5,37.6C55.7,97.6,54,97.8,52.3,98z M49.4,26.5c-3.2,0-6.4,0-9.5,0
		c-8.2,0-14.4,6.3-14.4,14.5c0,6.3,0,12.5,0,18.8c0,8.1,6.3,14.4,14.4,14.4c6.3,0,12.5,0,18.9,0c8.1,0,14.4-6.3,14.4-14.4
		c0-6.3,0-12.5,0-18.9c0-8.1-6.3-14.3-14.3-14.4C55.6,26.5,52.5,26.5,49.4,26.5z"/>
	<path class="st1" d="M49.4,26.5c3.1,0,6.3,0,9.4,0c8.1,0,14.3,6.3,14.3,14.4c0,6.3,0,12.5,0,18.9c0,8.1-6.3,14.4-14.4,14.4
		c-6.3,0-12.5,0-18.9,0c-8.1,0-14.4-6.3-14.4-14.4c0-6.3,0-12.5,0-18.8c0-8.2,6.3-14.4,14.4-14.5C43.1,26.5,46.3,26.5,49.4,26.5z
		 M49.3,69.4c3.1,0,6.2,0,9.3,0c5.7,0,9.7-4,9.7-9.7c0-6.2,0-12.5,0-18.6c0-5.7-4.1-9.7-9.7-9.7c-6.2,0-12.4,0-18.5,0
		c-5.8,0-9.7,4-9.7,9.7c0,6.2,0,12.4,0,18.5c0,5.8,4,9.7,9.7,9.7C43.2,69.4,46.2,69.4,49.3,69.4z"/>
	<path class="st0" d="M49.3,69.4c-3.1,0-6.2,0-9.2,0c-5.8,0-9.7-4-9.7-9.7c0-6.2,0-12.4,0-18.5c0-5.8,4.1-9.7,9.7-9.7
		c6.2,0,12.4,0,18.5,0c5.7,0,9.7,4,9.7,9.7c0,6.2,0,12.5,0,18.6c0,5.7-4.1,9.7-9.7,9.7C55.4,69.4,52.4,69.4,49.3,69.4z M37,50.3
		c0,6.9,5.4,12.3,12.3,12.4c6.8,0,12.4-5.4,12.4-12.3S56.2,38,49.4,38S37,43.5,37,50.3z M61.7,41c1.6,0,3-1.4,3.1-3
		c0-1.6-1.4-3.1-3.1-3.1c-1.6,0-3,1.4-3.1,3C58.6,39.7,60,41,61.7,41z"/>
	<path class="st1" d="M37,50.3C37,43.4,42.5,38,49.4,38s12.4,5.5,12.3,12.4c0,6.8-5.6,12.3-12.4,12.3C42.4,62.6,37,57.1,37,50.3z
		 M49.3,57.8c4.2,0,7.5-3.3,7.5-7.4s-3.3-7.5-7.4-7.5s-7.6,3.3-7.5,7.5C41.8,54.5,45.1,57.8,49.3,57.8z"/>
	<path class="st1" d="M61.7,41c-1.7,0-3.1-1.4-3.1-3.1s1.4-3,3.1-3c1.6,0,3.1,1.4,3.1,3.1C64.7,39.7,63.4,41,61.7,41z"/>
	<path class="st0" d="M49.3,57.8c-4.2,0-7.5-3.4-7.5-7.5c0-4.2,3.4-7.5,7.5-7.5s7.4,3.4,7.4,7.5C56.8,54.5,53.4,57.8,49.3,57.8z"/>
</g>
</svg>
