<?xml version="1.0" encoding="utf-8"?>
<!-- Generator: Adobe Illustrator 24.0.2, SVG Export Plug-In . SVG Version: 6.00 Build 0)  -->
<!DOCTYPE svg PUBLIC "-//W3C//DTD SVG 1.1//EN" "http://www.w3.org/Graphics/SVG/1.1/DTD/svg11.dtd" [
	<!ENTITY ns_extend "http://ns.adobe.com/Extensibility/1.0/">
	<!ENTITY ns_ai "http://ns.adobe.com/AdobeIllustrator/10.0/">
	<!ENTITY ns_graphs "http://ns.adobe.com/Graphs/1.0/">
	<!ENTITY ns_vars "http://ns.adobe.com/Variables/1.0/">
	<!ENTITY ns_imrep "http://ns.adobe.com/ImageReplacement/1.0/">
	<!ENTITY ns_sfw "http://ns.adobe.com/SaveForWeb/1.0/">
	<!ENTITY ns_custom "http://ns.adobe.com/GenericCustomNamespace/1.0/">
	<!ENTITY ns_adobe_xpath "http://ns.adobe.com/XPath/1.0/">
]>
<svg version="1.1" id="Capa_1" xmlns:x="&ns_extend;" xmlns:i="&ns_ai;" xmlns:graph="&ns_graphs;"
	 xmlns="http://www.w3.org/2000/svg" xmlns:xlink="http://www.w3.org/1999/xlink" x="0px" y="0px" viewBox="0 0 100 100"
	 style="enable-background:new 0 0 100 100;" xml:space="preserve">
<style type="text/css">
	.Sombra_x0020_paralela{fill:none;}
	.Resplandor_x0020_externo_x0020_5_x0020_pt_x002E_{fill:none;}
	.Neón_x0020_azul{fill:none;stroke:#8AACDA;stroke-width:7;stroke-linecap:round;stroke-linejoin:round;}
	.Resalte_x0020_cromado{fill:url(#SVGID_1_);stroke:#00000000;stroke-width:0.3629;stroke-miterlimit:1;}
	.A_x0020_todo_x0020_ritmo_GS{fill:#FFDD00;}
	.Alyssa_GS{fill:#A6D0E4;}
	.st0{fill:#5B3289;}
</style>
<metadata>
	<sfw  xmlns="&ns_sfw;">
		<slices></slices>
		<sliceSourceBounds  bottomLeftOrigin="true" height="96" width="60.4" x="12.3" y="-98"></sliceSourceBounds>
	</sfw>
</metadata>
<linearGradient id="SVGID_1_" gradientUnits="userSpaceOnUse" x1="0" y1="0" x2="6.123234e-17" y2="-1">
	<stop  offset="0" style="stop-color:#656565"/>
	<stop  offset="0.618" style="stop-color:#1B1B1B"/>
	<stop  offset="0.6292" style="stop-color:#545454"/>
	<stop  offset="0.9831" style="stop-color:#3E3E3E"/>
</linearGradient>
<path class="st0" d="M71.9,78C65.9,70.2,60,62.3,54,54.5c-0.4-0.5-0.4-0.8-0.1-1.4c1.6-2.7,3.1-5.5,4.6-8.3c2.1-4,3.6-8.1,4.2-12.6
	c0.3-2.4,0.6-4.9-0.1-7.2c-1.4-5.3-3.3-10.4-5.6-15.4c-0.9-2-2.4-3.6-4.3-4.8C46.6,1.3,40.2,1.2,33.8,4c-2.6,1.1-4.8,2.9-5.9,5.6
	c-1.6,4-3.2,8-4.6,12.1c-0.6,1.7-1.1,3.5-1.2,5.3c-0.4,4.8,0.6,9.5,2.6,13.8c1.8,3.9,3.8,7.7,5.9,11.4c0.6,1.2,0.8,1.9-0.2,3
	c-1,1.2-1.9,2.5-2.8,3.8c0,0.1,0,0.1-0.1,0.2c-3.4,4.5-13,17-14.6,19c-0.9,1.1-1,2.1-0.3,3.4c2.6,4.8,5.1,9.7,7.7,14.5
	c0.4,0.7,1,1.3,1.5,1.9c0.4,0,0.7,0,1.1,0c0.5-0.5,1.1-0.9,1.5-1.5c6.3-7.5,11.8-15.6,17.2-23.8c0.2-0.3,0.4-0.6,0.7-1
	c0.2,0.4,0.4,0.6,0.6,0.9C48,80.1,53,87.5,58.6,94.4c1,1.3,2.2,2.4,3.3,3.6c0.3,0,0.6,0,0.9,0c0.5-0.6,1.2-1,1.5-1.7
	c2.6-4.9,5.1-9.8,7.8-14.6C73,80.3,72.8,79.3,71.9,78z M51.4,19.7c-2.3,6.4-5.3,12.4-8.9,18.2c-3.6-5.9-6.6-11.8-8.9-18.2
	C39.6,17.7,45.4,17.7,51.4,19.7z"/>
</svg>
