<?xml version="1.0" encoding="utf-8"?>
<!-- Generator: Adobe Illustrator 24.0.2, SVG Export Plug-In . SVG Version: 6.00 Build 0)  -->
<!DOCTYPE svg PUBLIC "-//W3C//DTD SVG 1.1//EN" "http://www.w3.org/Graphics/SVG/1.1/DTD/svg11.dtd" [
	<!ENTITY ns_extend "http://ns.adobe.com/Extensibility/1.0/">
	<!ENTITY ns_ai "http://ns.adobe.com/AdobeIllustrator/10.0/">
	<!ENTITY ns_graphs "http://ns.adobe.com/Graphs/1.0/">
	<!ENTITY ns_vars "http://ns.adobe.com/Variables/1.0/">
	<!ENTITY ns_imrep "http://ns.adobe.com/ImageReplacement/1.0/">
	<!ENTITY ns_sfw "http://ns.adobe.com/SaveForWeb/1.0/">
	<!ENTITY ns_custom "http://ns.adobe.com/GenericCustomNamespace/1.0/">
	<!ENTITY ns_adobe_xpath "http://ns.adobe.com/XPath/1.0/">
]>
<svg version="1.1" id="Capa_1" xmlns:x="&ns_extend;" xmlns:i="&ns_ai;" xmlns:graph="&ns_graphs;"
	 xmlns="http://www.w3.org/2000/svg" xmlns:xlink="http://www.w3.org/1999/xlink" x="0px" y="0px" viewBox="0 0 85.1 20.1"
	 style="enable-background:new 0 0 85.1 20.1;" xml:space="preserve">
<style type="text/css">
	.st0{fill:#54328D;}
	.st1{fill:#E9B337;}
	.st2{fill:#FFE90B;}
	.st3{fill:#921C80;}
</style>
<metadata>
	<sfw  xmlns="&ns_sfw;">
		<slices></slices>
		<sliceSourceBounds  bottomLeftOrigin="true" height="18.6" width="82.5" x="1.4" y="0.6"></sliceSourceBounds>
	</sfw>
</metadata>
<title>logo color</title>
<g>
	<path class="st0" d="M48.6,7.3c-1.3-1.2-2.8-1.8-4.5-1.8S40.9,6,39.7,7.1c-0.3,0.3-0.5,0.5-0.8,0.8c-0.7,0.9-1,2.1-1,3.5v1.9H40
		h7.1C47,14,46.6,14.5,46,15c-0.6,0.4-1.3,0.7-2.1,0.7c-1.2,0-2.2-0.4-3-1.2l-2,2.1l0,0l0,0c1.4,1.3,3.1,2,5,2s3.5-0.6,4.7-1.8
		s1.9-2.8,1.9-4.7C50.6,10,49.9,8.4,48.6,7.3z M41.5,10.8c0.1-0.7,0.4-1.3,0.8-1.7c0.5-0.4,1.1-0.6,1.8-0.6s1.3,0.2,1.9,0.6
		c0.6,0.4,0.9,1,1,1.7H41.5z"/>
	<path class="st1" d="M38.4,16.5l-1.9-2.1c-0.8,0.8-1.8,1.2-3,1.2c-0.8,0-1.5-0.2-2.1-0.7c-0.6-0.4-1-1-1.1-1.7h7.1v-1.9
		c0-1.4,0.4-2.5,1-3.5c-0.2-0.3-0.5-0.6-0.8-0.8c-1.2-1-2.7-1.6-4.4-1.6c-1.7,0-3.2,0.6-4.5,1.8s-1.9,2.7-1.9,4.7s0.6,3.6,1.9,4.7
		c1.2,1.2,2.8,1.8,4.7,1.8C35.3,18.5,37,17.8,38.4,16.5L38.4,16.5L38.4,16.5z M31.4,9c0.6-0.4,1.2-0.6,1.9-0.6s1.3,0.2,1.8,0.6
		c0.5,0.4,0.8,1,0.8,1.7h-5.5C30.5,10,30.8,9.5,31.4,9z"/>
	<path class="st1" d="M6.4,8.2v5.6c0,0.5,0.1,0.9,0.4,1.1c0.2,0.3,0.5,0.4,0.9,0.4c0.7,0,1.2-0.3,1.7-0.9l1.3,2.5
		c-1.1,1-2.2,1.5-3.5,1.5S5,18,4.1,17.2c-0.8-0.8-1.3-1.9-1.3-3.3V8.2H1.4V5.7h1.5V1.9h3.5v3.8h3v2.5H6.4z"/>
	<path class="st1" d="M16,11.5v6.8h-3.5V0.9H16v6.2c1.1-1.1,2.3-1.6,3.6-1.6c1.3,0,2.4,0.5,3.3,1.4s1.4,2.2,1.4,3.7v7.7h-3.5v-6.9
		c0-1.9-0.7-2.9-2.1-2.9c-0.7,0-1.3,0.3-1.8,0.8C16.3,9.7,16,10.5,16,11.5z"/>
	<path class="st0" d="M56.3,11.2v7h-3.5V5.7h3.5v1.4c1.1-1.1,2.3-1.6,3.6-1.6s2.4,0.5,3.3,1.4s1.3,2.2,1.3,3.7v7.7H61v-7.1
		c0.1-2-0.6-3-2.1-3c-0.7,0-1.3,0.3-1.8,0.8S56.3,10.3,56.3,11.2z"/>
	<path class="st2" d="M38.4,16.5L38.4,16.5L38.4,16.5L38.4,16.5L38.4,16.5z"/>
	<path class="st3" d="M38.4,16.5L38.4,16.5L38.4,16.5L38.4,16.5L38.4,16.5z"/>
	<g>
		<path class="st0" d="M72.5,15.2c-0.4-0.2-0.7-0.4-1-0.7c-0.6-0.6-0.9-1.5-0.9-2.5s0.3-1.9,0.9-2.6s1.3-1,2.1-1
			c0.8,0,1.5,0.3,2.1,1c0.3,0.4,0.5,0.8,0.7,1.2c0.7-0.3,1.6-0.5,2.4-0.5c0.4,0,0.8,0,1.2,0.1V0.9h-3.5v6.2c-1-1.1-2.2-1.6-3.7-1.6
			s-2.9,0.6-4,1.8s-1.7,2.7-1.7,4.6s0.6,3.4,1.8,4.7c1.1,1.2,2.4,1.9,3.9,1.9c-0.3-0.7-0.4-1.3-0.4-1.9
			C72.4,16.1,72.4,15.7,72.5,15.2z"/>
	</g>
	<g>
		<path class="st0" d="M76.9,14.5c-0.1-0.2-0.3-0.3-0.5-0.3c-0.6,0-1,0.3-1.4,0.9c-0.3,0.4-0.5,1-0.6,1.6s0,1.2,0.2,1.7
			c0.2,0.6,0.6,1,1.2,1.1c0.1,0,0.3,0,0.4,0c0.5,0,0.9-0.2,1.2-0.6c0.3-0.4,0.6-1,0.6-1.6c0.1-0.6,0-1.2-0.2-1.8
			C77.7,15.1,77.3,14.7,76.9,14.5z M77.2,17.3c-0.1,0.5-0.2,0.9-0.4,1.2c-0.2,0.3-0.5,0.3-0.8,0.3c-0.3-0.1-0.4-0.2-0.6-0.6
			c-0.1-0.4-0.2-0.8-0.1-1.3s0.2-0.9,0.4-1.3c0.1-0.2,0.3-0.4,0.5-0.4h0.1c0.3,0.1,0.6,0.3,0.7,0.7C77.2,16.3,77.3,16.8,77.2,17.3z"
			/>
		<path class="st0" d="M83.8,17.3c-0.1-0.1-0.2-0.1-0.3-0.1c-0.3,0-0.7,0-1.2,0c-1,0-1.8,0-2.6,0l0,0v-0.1l0.5-0.5
			c1-0.9,1.6-1.5,1.8-1.7c0.1-0.1,0.1-0.2,0.1-0.3s0-0.2-0.1-0.3c-0.2-0.2-0.5-0.1-0.6,0c-0.2,0.2-0.8,0.8-1.7,1.6
			c0-0.6-0.1-1.3-0.1-2.2c-0.1-1.1-0.1-1.8-0.1-2.2c0-0.1,0-0.2-0.1-0.3c-0.2-0.2-0.5-0.2-0.6,0c-0.1,0.1-0.1,0.2-0.1,0.3
			c0,0.2,0,1,0.1,2.2s0.1,2.2,0.1,2.8l-0.3,0.3l-0.1,0.1c0,0,0,0.1-0.1,0.1c0,0.1-0.1,0.2,0,0.3c0,0.1,0.1,0.3,0.3,0.3
			c0.1,0,0.1,0,0.2,0.1l0,0c0,0.5,0,0.9,0,1.3c0,0.1,0,0.2,0.1,0.3c0.1,0.1,0.2,0.1,0.3,0.1c0.1,0,0.2,0,0.3-0.1
			c0.1-0.1,0.1-0.2,0.1-0.3c0-0.4,0-0.8,0-1.3c0.7,0,1.6,0,2.6,0c0.5,0,0.9,0,1.2,0c0.1,0,0.2,0,0.3-0.1c0.1-0.1,0.1-0.2,0.1-0.3
			C83.9,17.5,83.9,17.3,83.8,17.3z"/>
	</g>
</g>
</svg>
