<?xml version="1.0" encoding="utf-8"?>
<!-- Generator: Adobe Illustrator 24.0.2, SVG Export Plug-In . SVG Version: 6.00 Build 0)  -->
<!DOCTYPE svg PUBLIC "-//W3C//DTD SVG 1.1//EN" "http://www.w3.org/Graphics/SVG/1.1/DTD/svg11.dtd" [
	<!ENTITY ns_extend "http://ns.adobe.com/Extensibility/1.0/">
	<!ENTITY ns_ai "http://ns.adobe.com/AdobeIllustrator/10.0/">
	<!ENTITY ns_graphs "http://ns.adobe.com/Graphs/1.0/">
	<!ENTITY ns_vars "http://ns.adobe.com/Variables/1.0/">
	<!ENTITY ns_imrep "http://ns.adobe.com/ImageReplacement/1.0/">
	<!ENTITY ns_sfw "http://ns.adobe.com/SaveForWeb/1.0/">
	<!ENTITY ns_custom "http://ns.adobe.com/GenericCustomNamespace/1.0/">
	<!ENTITY ns_adobe_xpath "http://ns.adobe.com/XPath/1.0/">
]>
<svg version="1.1" id="Capa_1" xmlns:x="&ns_extend;" xmlns:i="&ns_ai;" xmlns:graph="&ns_graphs;"
	 xmlns="http://www.w3.org/2000/svg" xmlns:xlink="http://www.w3.org/1999/xlink" x="0px" y="0px" viewBox="0 0 117.2 22.5"
	 style="enable-background:new 0 0 117.2 22.5;" xml:space="preserve">
<style type="text/css">
	.Sombra_x0020_paralela{fill:none;}
	.Esquinas_x0020_redondeadas_x0020_2_x0020_pt_x002E_{fill:#FFFFFF;stroke:#1D1D1B;stroke-miterlimit:10;}
	.Reflejo_x0020_vivo_x0020_X{fill:none;}
	.Bisel_x0020_suave{fill:url(#SVGID_1_);}
	.Atardecer{fill:#FFFFFF;}
	.Follaje_GS{fill:#FFDC00;}
	.Pompadour_GS{fill-rule:evenodd;clip-rule:evenodd;fill:#51ADE1;}
	.st0{fill:#FFFFFF;}
</style>
<metadata>
	<sfw  xmlns="&ns_sfw;">
		<slices></slices>
		<sliceSourceBounds  bottomLeftOrigin="true" height="20" width="114.8" x="1.8" y="-21.1"></sliceSourceBounds>
	</sfw>
</metadata>
<linearGradient id="SVGID_1_" gradientUnits="userSpaceOnUse" x1="0" y1="0" x2="0.7071" y2="0.7071">
	<stop  offset="0" style="stop-color:#E6E6EA"/>
	<stop  offset="0.1761" style="stop-color:#E2E2E6"/>
	<stop  offset="0.3567" style="stop-color:#D6D6DA"/>
	<stop  offset="0.5393" style="stop-color:#C1C2C5"/>
	<stop  offset="0.7233" style="stop-color:#A5A6A8"/>
	<stop  offset="0.9067" style="stop-color:#808384"/>
	<stop  offset="1" style="stop-color:#6B6E6E"/>
</linearGradient>
<g>
	<path class="st0" d="M50.3,9.6c-0.8,0-1.5,0.2-2,0.7s-0.9,1.1-1,2h6.3c-0.1-0.8-0.5-1.5-1.1-1.9C51.9,9.8,51.1,9.6,50.3,9.6z"/>
	<path class="st0" d="M40.1,10.3c-0.6-0.5-1.2-0.7-2-0.7c-0.8,0-1.5,0.2-2.2,0.7c-0.7,0.5-1,1.1-1.1,1.9H41
		C40.9,11.4,40.6,10.8,40.1,10.3z"/>
	<path class="st0" d="M55.5,8.3c-1.4-1.3-3.2-2-5.1-2c-2,0-3.6,0.6-5,1.8C45,8.4,44.8,8.7,44.5,9c-0.8,1.1-1.2,2.4-1.2,4v2.1h2.4
		h8.1c-0.1,0.8-0.5,1.4-1.2,1.9c-0.7,0.5-1.5,0.7-2.3,0.7c-1.4,0-2.6-0.5-3.5-1.4l-2.2,2.4l0,0c0,0,0,0,0,0c1.6,1.5,3.5,2.3,5.7,2.3
		c2.2,0,4-0.7,5.4-2c1.4-1.3,2.1-3.1,2.1-5.4C57.7,11.4,57,9.6,55.5,8.3z M47.4,12.3c0.1-0.9,0.4-1.5,1-2s1.2-0.7,2-0.7
		c0.8,0,1.5,0.2,2.2,0.7c0.7,0.5,1,1.1,1.1,1.9H47.4z"/>
	<path class="st0" d="M43.9,18.8l-2.2-2.4c-0.9,0.9-2.1,1.4-3.5,1.4c-0.9,0-1.7-0.2-2.3-0.7c-0.7-0.5-1.1-1.1-1.2-1.9l8.1,0V13
		c0-1.6,0.4-2.9,1.2-4c-0.3-0.3-0.5-0.7-0.9-0.9c-1.4-1.2-3.1-1.8-5-1.8c-2,0-3.7,0.7-5.1,2c-1.4,1.3-2.2,3.1-2.2,5.4
		c0,2.3,0.7,4.1,2.1,5.4c1.4,1.3,3.2,2,5.4,2C40.4,21.1,42.3,20.3,43.9,18.8C43.9,18.8,43.9,18.8,43.9,18.8L43.9,18.8z M35.9,10.3
		c0.7-0.5,1.4-0.7,2.2-0.7c0.8,0,1.5,0.2,2,0.7c0.6,0.5,0.9,1.1,1,2h-6.3C34.8,11.4,35.2,10.8,35.9,10.3z"/>
</g>
<path class="st0" d="M7.5,9.4v6.4c0,0.6,0.1,1,0.4,1.3c0.3,0.3,0.6,0.5,1,0.5c0.7,0,1.4-0.3,1.9-1l1.5,2.8C11,20.5,9.7,21,8.3,21
	s-2.5-0.5-3.5-1.4c-1-0.9-1.4-2.1-1.4-3.7V9.4H1.8V6.5h1.7V2.2h4v4.3h3.5v2.9H7.5z"/>
<path class="st0" d="M18.4,13.1v7.7h-4V1h4v7c1.2-1.2,2.6-1.8,4.1-1.8c1.5,0,2.8,0.5,3.8,1.6c1,1.1,1.5,2.5,1.5,4.3v8.7h-4V13
	c0-2.2-0.8-3.3-2.4-3.3c-0.8,0-1.5,0.3-2.1,0.9C18.7,11.1,18.4,12,18.4,13.1z"/>
<path class="st0" d="M64.3,12.8v8h-4V6.5h4v1.6c1.2-1.2,2.6-1.8,4.1-1.8c1.5,0,2.8,0.5,3.8,1.6c1,1.1,1.5,2.5,1.5,4.3v8.7h-4v-8.1
	c0-2.2-0.8-3.3-2.4-3.3c-0.8,0-1.5,0.3-2.1,0.9C64.6,10.9,64.3,11.7,64.3,12.8z"/>
<path class="st0" d="M83,21c-1.7,0-3.2-0.7-4.5-2.2c-1.3-1.4-2-3.2-2-5.4s0.6-3.9,1.9-5.2c1.3-1.4,2.8-2,4.6-2s3.2,0.6,4.3,1.8V1h4
	v19.8h-4v-1.9C86.1,20.3,84.7,21,83,21z M80.5,13.7c0,1.2,0.3,2.1,1,2.8c0.7,0.7,1.5,1.1,2.4,1.1c0.9,0,1.7-0.4,2.4-1.1
	c0.6-0.7,1-1.7,1-2.8c0-1.2-0.3-2.1-1-2.9c-0.6-0.8-1.4-1.2-2.4-1.2c-0.9,0-1.7,0.4-2.4,1.2C80.8,11.6,80.5,12.5,80.5,13.7z"/>
<path class="st0" d="M43.9,18.8L43.9,18.8C43.9,18.8,43.9,18.8,43.9,18.8C43.9,18.8,43.9,18.8,43.9,18.8L43.9,18.8z"/>
<path class="st0" d="M43.9,18.8L43.9,18.8C43.9,18.8,43.9,18.8,43.9,18.8C43.9,18.8,43.9,18.8,43.9,18.8L43.9,18.8z"/>
<g>
	<g>
		<g>
			<path class="st0" d="M99.5,9.1c1.1,0.5,2,1.3,2.4,2.6c0.5,1.3,0.6,2.7,0.5,4.1c-0.2,1.6-0.7,2.8-1.4,3.7c-1,1.1-2.2,1.5-3.6,1.2
				c-1.2-0.3-2.1-1.1-2.6-2.5c-0.4-1.1-0.6-2.5-0.4-3.9c0.2-1.5,0.6-2.7,1.3-3.8c0.8-1.2,1.9-1.9,3.1-1.9
				C99.2,8.6,99.4,8.7,99.5,9.1z M98.4,9.9c-0.6,0.2-1.1,0.6-1.6,1.3c-0.6,0.9-1,2-1.1,3.2c-0.2,1.3-0.1,2.4,0.3,3.3
				c0.4,1,0.9,1.5,1.7,1.7c0.9,0.2,1.7,0,2.4-0.8c0.6-0.7,1-1.8,1.2-3.1c0.1-1.3,0-2.5-0.5-3.6c-0.4-1.1-1.1-1.7-2.1-2
				C98.6,10.1,98.5,10,98.4,9.9z"/>
			<path class="st0" d="M98.3,20.9c-0.3,0-0.6,0-0.9-0.1c-1.2-0.3-2.1-1.2-2.7-2.5c-0.4-1.2-0.6-2.5-0.4-4c0.2-1.5,0.6-2.8,1.4-3.8
				c0.8-1.3,1.9-1.9,3.2-2c0.4,0,0.6,0.2,0.7,0.5c1.1,0.5,2,1.4,2.5,2.7c0.5,1.3,0.6,2.7,0.5,4.1c-0.2,1.6-0.7,2.8-1.5,3.8
				C100.3,20.5,99.3,20.9,98.3,20.9z M98.9,8.7C98.9,8.7,98.9,8.7,98.9,8.7c-1.3,0-2.3,0.7-3.1,1.9c-0.7,1-1.1,2.3-1.3,3.7
				c-0.2,1.5-0.1,2.8,0.4,3.9c0.5,1.3,1.4,2.1,2.5,2.4c1.4,0.3,2.5-0.1,3.5-1.2c0.8-0.9,1.2-2.1,1.4-3.7c0.2-1.4,0-2.8-0.5-4
				c-0.5-1.3-1.3-2.1-2.4-2.6l-0.1,0l0-0.1C99.3,8.8,99.2,8.7,98.9,8.7z M98.3,19.7c-0.2,0-0.4,0-0.7-0.1c-0.8-0.2-1.4-0.8-1.8-1.8
				c-0.4-1-0.5-2.1-0.3-3.4c0.2-1.3,0.6-2.4,1.2-3.3c0.5-0.7,1-1.1,1.6-1.3l0,0l0,0c0.1,0.1,0.2,0.1,0.2,0.1c0.9,0.3,1.7,0.9,2.1,2
				c0.5,1.1,0.6,2.3,0.5,3.7c-0.1,1.3-0.5,2.4-1.2,3.1C99.6,19.4,99,19.7,98.3,19.7z M98.3,10c-0.6,0.2-1.1,0.6-1.5,1.2
				c-0.6,0.9-1,1.9-1.1,3.2c-0.2,1.2-0.1,2.4,0.3,3.3c0.4,0.9,0.9,1.5,1.6,1.6c0.9,0.2,1.7,0,2.3-0.7c0.6-0.7,1-1.7,1.1-3
				c0.1-1.3,0-2.5-0.5-3.6c-0.4-1-1.1-1.7-2-1.9C98.5,10.1,98.4,10.1,98.3,10z"/>
		</g>
		<g>
			<path class="st0" d="M112,9.5c-0.4,0.5-1.9,1.8-4.3,4l-1.4,1.3c0,0.3,0,0.5,0,0.8c0.2,0,0.3,0,0.5,0c0.9,0,1.8,0,2.8,0
				c1,0,2.1,0,3.4,0c1.2,0,2.2,0,2.8,0c0.2,0,0.3,0.1,0.4,0.2c0.1,0.1,0.2,0.3,0.2,0.4c0,0.2-0.1,0.3-0.2,0.4
				c-0.1,0.1-0.3,0.2-0.4,0.2c-0.7,0-1.6,0-2.9,0s-2.4,0-3.4,0c-1,0-2,0-2.9,0c-0.1,0-0.2,0-0.4,0c0,1.2,0,2.4,0,3.5
				c0,0.2-0.1,0.3-0.2,0.4c-0.1,0.1-0.3,0.2-0.4,0.2c-0.2,0-0.3-0.1-0.4-0.2c-0.1-0.1-0.2-0.3-0.2-0.4c0-1.1,0-2.3,0-3.6
				c-0.2,0-0.3,0-0.4-0.1c-0.2,0-0.3-0.1-0.4-0.1c-0.2-0.1-0.4-0.3-0.4-0.5c0-0.2,0-0.3,0.1-0.4c0,0,0.1-0.1,0.1-0.2
				s0.1-0.1,0.2-0.2l0.7-0.7l0.2-0.2c0-1.6-0.1-4-0.3-7c-0.2-3.1-0.3-4.9-0.3-5.4c0-0.2,0.1-0.3,0.2-0.5c0.1-0.1,0.3-0.2,0.4-0.2
				s0.3,0.1,0.4,0.2c0.1,0.1,0.2,0.3,0.2,0.4c0,0.8,0.1,2.5,0.3,5.2c0.1,2.7,0.2,4.7,0.3,6.2l0.7-0.6c2.3-2,3.7-3.4,4.2-3.9
				c0.1-0.1,0.3-0.2,0.4-0.2s0.3,0.1,0.4,0.2c0.1,0.1,0.2,0.3,0.2,0.4S112.1,9.4,112,9.5z"/>
			<path class="st0" d="M105.7,21c-0.2,0-0.4-0.1-0.5-0.2c-0.1-0.1-0.2-0.3-0.2-0.5c0-1.1,0-2.3,0-3.5c-0.1,0-0.2,0-0.3-0.1
				c-0.2,0-0.3-0.1-0.4-0.1c-0.3-0.1-0.4-0.3-0.5-0.6c0-0.2,0-0.4,0.1-0.5c0,0,0.1-0.1,0.1-0.2c0-0.1,0.1-0.2,0.2-0.3l0.7-0.7
				l0.2-0.1c0-1.6-0.2-4-0.3-7c-0.2-3.3-0.3-4.9-0.3-5.4c0-0.2,0.1-0.4,0.2-0.5c0.1-0.1,0.3-0.2,0.5-0.2c0.2,0,0.4,0.1,0.5,0.2
				c0.1,0.1,0.2,0.3,0.2,0.5c0,0.8,0.1,2.5,0.3,5.2c0.1,2.5,0.2,4.5,0.3,6l0.5-0.5c2.3-2,3.7-3.4,4.2-3.9c0.1-0.2,0.3-0.2,0.5-0.2
				c0.2,0,0.4,0.1,0.5,0.2c0.1,0.1,0.2,0.3,0.2,0.5c0,0.2-0.1,0.4-0.2,0.5c-0.4,0.5-1.8,1.8-4.3,4l-1.4,1.3c0,0.2,0,0.4,0,0.6
				c0.1,0,0.3,0,0.4,0c1.7,0,3.9,0,6.2,0c1.2,0,2.2,0,2.8,0c0.2,0,0.4,0.1,0.5,0.2c0.1,0.1,0.2,0.3,0.2,0.5c0,0.2-0.1,0.4-0.2,0.5
				S116,17,115.8,17c-0.7,0-1.6,0-2.9,0c-1.2,0-2.4,0-3.4,0c-1,0-2,0-2.9,0c0,0,0,0,0,0c-0.1,0-0.2,0-0.3,0c0,1.2,0,2.3,0,3.4
				c0,0.2-0.1,0.4-0.2,0.5C106,21,105.9,21,105.7,21z M105,1.3c-0.1,0-0.3,0.1-0.4,0.2c-0.1,0.1-0.1,0.2-0.1,0.4
				c0,0.5,0.1,2.1,0.3,5.4c0.2,3.1,0.3,5.4,0.3,7.1l0,0l-0.2,0.2l-0.6,0.6c-0.1,0.1-0.2,0.2-0.2,0.2c0,0.1-0.1,0.1-0.1,0.2
				c-0.1,0.1-0.1,0.3-0.1,0.4c0.1,0.2,0.2,0.3,0.4,0.4c0.1,0,0.2,0.1,0.4,0.1c0.1,0,0.2,0,0.4,0.1l0.1,0l0,0.1c0,1.2,0,2.4,0,3.6
				c0,0.1,0,0.3,0.1,0.4c0.1,0.1,0.2,0.2,0.4,0.2c0.1,0,0.3,0,0.4-0.1c0.1-0.1,0.2-0.2,0.2-0.4c0-1.1,0-2.3,0-3.5l0-0.1l0.1,0
				c0.2,0,0.3,0,0.4,0c0.9,0,1.8,0,2.9,0c1,0,2.1,0,3.4,0c1.2,0,2.2,0,2.9,0c0.1,0,0.3-0.1,0.4-0.2s0.2-0.2,0.2-0.4
				c0-0.1-0.1-0.3-0.2-0.4c-0.1-0.1-0.2-0.2-0.4-0.2c-0.7,0-1.6,0-2.8,0c-2.3,0-4.4,0-6.2,0c0,0,0,0,0,0c-0.2,0-0.3,0-0.5,0l-0.1,0
				v-0.1c0-0.2,0-0.5,0-0.8l0,0l1.5-1.3c2.4-2.2,3.9-3.6,4.3-4l0,0c0.1-0.1,0.1-0.2,0.1-0.4c0-0.1-0.1-0.3-0.2-0.4
				c-0.1-0.1-0.2-0.1-0.4-0.1c-0.1,0-0.3,0.1-0.4,0.2c-0.6,0.6-2,1.9-4.2,3.9l-0.8,0.8l0-0.2c0-1.5-0.1-3.6-0.3-6.2
				c-0.1-2.7-0.2-4.4-0.3-5.2c0-0.1-0.1-0.2-0.2-0.3C105.3,1.4,105.2,1.3,105,1.3z"/>
		</g>
	</g>
</g>
</svg>
