<?xml version="1.0" encoding="utf-8"?>
<!-- Generator: Adobe Illustrator 24.0.2, SVG Export Plug-In . SVG Version: 6.00 Build 0)  -->
<!DOCTYPE svg PUBLIC "-//W3C//DTD SVG 1.1//EN" "http://www.w3.org/Graphics/SVG/1.1/DTD/svg11.dtd" [
	<!ENTITY ns_extend "http://ns.adobe.com/Extensibility/1.0/">
	<!ENTITY ns_ai "http://ns.adobe.com/AdobeIllustrator/10.0/">
	<!ENTITY ns_graphs "http://ns.adobe.com/Graphs/1.0/">
	<!ENTITY ns_vars "http://ns.adobe.com/Variables/1.0/">
	<!ENTITY ns_imrep "http://ns.adobe.com/ImageReplacement/1.0/">
	<!ENTITY ns_sfw "http://ns.adobe.com/SaveForWeb/1.0/">
	<!ENTITY ns_custom "http://ns.adobe.com/GenericCustomNamespace/1.0/">
	<!ENTITY ns_adobe_xpath "http://ns.adobe.com/XPath/1.0/">
]>
<svg version="1.1" id="Capa_1" xmlns:x="&ns_extend;" xmlns:i="&ns_ai;" xmlns:graph="&ns_graphs;"
	 xmlns="http://www.w3.org/2000/svg" xmlns:xlink="http://www.w3.org/1999/xlink" x="0px" y="0px" viewBox="0 0 240 61"
	 style="enable-background:new 0 0 240 61;" xml:space="preserve">
<style type="text/css">
	.Sombra_x0020_paralela{fill:none;}
	.Resplandor_x0020_externo_x0020_5_x0020_pt_x002E_{fill:none;}
	.Neón_x0020_azul{fill:none;stroke:#8AACDA;stroke-width:7;stroke-linecap:round;stroke-linejoin:round;}
	.Resalte_x0020_cromado{fill:url(#SVGID_1_);stroke:#FFFFFF;stroke-width:0.3629;stroke-miterlimit:1;}
	.A_x0020_todo_x0020_ritmo_GS{fill:#FFDD00;}
	.Alyssa_GS{fill:#A6D0E4;}
	.st0{fill:#FFFFFF;}
</style>
<metadata>
	<sfw  xmlns="&ns_sfw;">
		<slices></slices>
		<sliceSourceBounds  bottomLeftOrigin="true" height="53.4" width="234.3" x="-71" y="-68.6"></sliceSourceBounds>
	</sfw>
</metadata>
<linearGradient id="SVGID_1_" gradientUnits="userSpaceOnUse" x1="73" y1="-9" x2="73" y2="-10">
	<stop  offset="0" style="stop-color:#656565"/>
	<stop  offset="0.618" style="stop-color:#1B1B1B"/>
	<stop  offset="0.6292" style="stop-color:#545454"/>
	<stop  offset="0.9831" style="stop-color:#3E3E3E"/>
</linearGradient>
<g>
	<g>
		<path class="st0" d="M136.2,24.4c-3.6-3.3-7.9-5-12.8-5c-4.9,0-9.1,1.5-12.5,4.5c-0.8,0.7-1.6,1.5-2.2,2.4c-2,2.7-3,5.9-3,9.9v5.3
			h5.9h20.1c-0.3,1.9-1.3,3.5-3.1,4.8c-1.7,1.2-3.7,1.9-5.9,1.9c-3.5,0-6.4-1.2-8.6-3.5l-5.5,6l0,0.1c0,0,0,0,0,0
			c4,3.8,8.7,5.7,14.1,5.7c5.4,0,9.9-1.7,13.5-5c3.5-3.3,5.3-7.8,5.3-13.5C141.6,32.2,139.8,27.7,136.2,24.4z M115.8,34.3
			c0.2-2.1,1-3.8,2.4-4.9c1.4-1.2,3-1.7,5-1.7c2,0,3.8,0.6,5.4,1.8c1.6,1.2,2.6,2.8,2.9,4.9H115.8z"/>
		<path class="st0" d="M107.1,50.5l-5.5-6c-2.3,2.4-5.1,3.5-8.6,3.5c-2.2,0-4.1-0.6-5.9-1.9c-1.7-1.2-2.7-2.8-3.1-4.8l20.1,0v-5.3
			c0-3.9,1-7.2,3-9.9c-0.6-0.8-1.3-1.6-2.2-2.4c-3.4-3-7.6-4.5-12.5-4.5c-4.9,0-9.2,1.7-12.8,5c-3.6,3.3-5.4,7.8-5.4,13.4
			c0,5.6,1.8,10.1,5.3,13.5c3.5,3.3,8,5,13.5,5C98.4,56.3,103.1,54.4,107.1,50.5C107.1,50.6,107.1,50.6,107.1,50.5L107.1,50.5z
			 M87.1,29.4c1.6-1.2,3.4-1.8,5.4-1.8s3.6,0.6,5,1.7c1.4,1.2,2.2,2.8,2.4,4.9H84.3C84.5,32.3,85.5,30.6,87.1,29.4z"/>
	</g>
	<path class="st0" d="M16.2,27v16c0,1.4,0.4,2.4,1.1,3.2c0.7,0.8,1.6,1.2,2.5,1.2c1.9,0,3.4-0.8,4.7-2.5l3.7,7
		c-3.1,2.8-6.4,4.3-9.8,4.3s-6.3-1.1-8.7-3.4c-2.4-2.3-3.6-5.3-3.6-9.2V27H2v-7.2h4.2V9.2h10v10.7h8.6V27H16.2z"/>
	<path class="st0" d="M43.5,36.3v19.3h-10V6.3h10v17.6c3-3.1,6.4-4.6,10.1-4.6c3.7,0,6.9,1.3,9.5,4c2.6,2.7,3.9,6.2,3.9,10.6v21.7
		H57V36.1c0-5.5-2-8.2-6-8.2c-2,0-3.7,0.7-5.2,2.2C44.3,31.4,43.5,33.5,43.5,36.3z"/>
	<path class="st0" d="M157.9,35.7v19.9h-10V19.9h10v4c3-3.1,6.4-4.6,10.2-4.6c3.8,0,6.9,1.3,9.5,4c2.5,2.7,3.8,6.2,3.8,10.6v21.7
		h-10V35.4c0-5.5-2-8.2-6-8.2c-2,0-3.7,0.7-5.2,2.2C158.7,30.8,157.9,32.9,157.9,35.7z"/>
	<path class="st0" d="M107.1,50.5L107.1,50.5C107.1,50.6,107.1,50.6,107.1,50.5C107.1,50.6,107.1,50.6,107.1,50.5L107.1,50.5z"/>
	<path class="st0" d="M107.1,50.5L107.1,50.5C107.1,50.6,107.1,50.6,107.1,50.5C107.1,50.6,107.1,50.6,107.1,50.5L107.1,50.5z"/>
	<g>
		<path class="st0" d="M204,47c-1-0.5-2-1.2-2.9-2.1c-1.7-1.8-2.6-4.2-2.6-7.1c0-2.9,0.8-5.3,2.5-7.3c1.7-1.9,3.7-2.9,6.1-2.9
			c2.3,0,4.3,1,5.9,2.9c0.8,1,1.5,2.2,1.9,3.4c2.1-0.9,4.5-1.4,6.9-1.4c1.2,0,2.4,0.1,3.5,0.3V6.3h-10v17.6
			c-2.7-3.1-6.3-4.6-10.6-4.6c-4.3,0-8.1,1.7-11.4,5.1c-3.2,3.4-4.9,7.7-4.9,13.1s1.7,9.8,5,13.4c3.2,3.5,6.9,5.3,10.9,5.4
			c-0.5-1.7-0.8-3.5-0.8-5.3C203.6,49.5,203.7,48.2,204,47z"/>
	</g>
	<g>
		<path class="st0" d="M216.3,44.8c-0.2-0.5-0.6-0.7-1.2-0.7c-1.6,0.1-3,0.9-4,2.5c-0.9,1.3-1.4,2.8-1.7,4.7
			c-0.2,1.8-0.1,3.5,0.5,4.9c0.7,1.7,1.8,2.8,3.4,3.2c0.4,0.1,0.8,0.1,1.2,0.1c1.4,0,2.5-0.6,3.5-1.7c1-1.2,1.6-2.7,1.8-4.6
			c0.2-1.7,0-3.4-0.6-5C218.6,46.6,217.6,45.5,216.3,44.8z M217.4,52.9c-0.1,1.4-0.6,2.5-1.2,3.3c-0.6,0.7-1.4,1-2.3,0.7
			c-0.7-0.2-1.2-0.7-1.6-1.7c-0.4-1-0.5-2.3-0.3-3.7c0.2-1.4,0.6-2.6,1.3-3.6c0.4-0.6,0.9-1,1.4-1.2c0.1,0,0.2,0.1,0.3,0.1
			c0.9,0.3,1.6,0.9,2.1,2C217.3,50.1,217.5,51.4,217.4,52.9z"/>
		<path class="st0" d="M235.9,52.8c-0.2-0.2-0.5-0.4-0.9-0.4c-0.8,0-1.9,0-3.3,0c-2.9,0-5.2,0-7.3,0c0,0-0.1,0-0.1,0
			c0-0.1,0-0.1,0-0.2l1.5-1.4c2.9-2.6,4.6-4.2,5.1-4.8c0.2-0.2,0.3-0.5,0.3-0.8c0-0.3-0.1-0.6-0.4-0.9c-0.5-0.5-1.3-0.4-1.7,0.1
			c-0.6,0.7-2.3,2.2-4.9,4.6c-0.1-1.6-0.2-3.7-0.3-6.2c-0.2-3.1-0.3-5.2-0.3-6.1c0-0.3-0.1-0.6-0.4-0.9c-0.5-0.4-1.3-0.4-1.7,0.1
			c-0.2,0.2-0.3,0.5-0.3,0.9c0,0.6,0.1,2.7,0.3,6.3c0.2,3.4,0.3,6.1,0.4,8L221,52c-0.1,0.1-0.2,0.3-0.3,0.4
			c-0.1,0.1-0.1,0.2-0.2,0.3c-0.1,0.3-0.2,0.5-0.1,0.9c0.1,0.4,0.4,0.7,0.8,0.9c0.1,0.1,0.3,0.1,0.6,0.2c0,0,0.1,0,0.1,0
			c0,1.3,0,2.6,0,3.8c0,0.3,0.1,0.6,0.3,0.8c0.2,0.3,0.5,0.4,0.9,0.4c0.3,0,0.6-0.1,0.9-0.3c0.3-0.2,0.4-0.5,0.4-0.9
			c0-1.1,0-2.3,0-3.6c2.1,0.1,4.4,0,7.3,0c1.5,0,2.6,0,3.4,0c0.3,0,0.6-0.1,0.9-0.4c0.2-0.2,0.4-0.5,0.4-0.9
			C236.3,53.3,236.2,53,235.9,52.8z"/>
	</g>
</g>
</svg>
