<svg xmlns="http://www.w3.org/2000/svg" viewBox="0 0 115.29 20.14"><defs><style>.cls-1{isolation:isolate;}.cls-2{fill:none;}.cls-3{fill:#fff;}.cls-4{fill:#ebb438;}.cls-5{fill:#ffea01;}.cls-6{fill:#931b80;mix-blend-mode:multiply;}</style></defs><title>logo color</title><g class="cls-1"><g id="Capa_1" data-name="Capa 1"><path class="cls-2" d="M49.8,10.67a3,3,0,0,0-2,.7,2.86,2.86,0,0,0-1,2h6.32A2.76,2.76,0,0,0,52,11.4,3.64,3.64,0,0,0,49.8,10.67Z" transform="translate(-0.97 -2.08)"/><path class="cls-2" d="M39.47,11.37a3,3,0,0,0-2-.69,3.63,3.63,0,0,0-2.18.72,2.73,2.73,0,0,0-1.15,1.95h6.32A2.86,2.86,0,0,0,39.47,11.37Z" transform="translate(-0.97 -2.08)"/><path class="cls-3" d="M55,9.36a7.79,7.79,0,0,0-10.2-.21,5.61,5.61,0,0,0-.88.95,6.45,6.45,0,0,0-1.2,4v2.14h10.5A2.94,2.94,0,0,1,52,18.15a4,4,0,0,1-2.36.74,4.61,4.61,0,0,1-3.48-1.42l-2.23,2.42,0,0h0a8.06,8.06,0,0,0,5.7,2.28,7.58,7.58,0,0,0,5.42-2,7.09,7.09,0,0,0,2.14-5.42A7,7,0,0,0,55,9.36Zm-8.21,4a2.86,2.86,0,0,1,1-2,3,3,0,0,1,2-.7A3.64,3.64,0,0,1,52,11.4a2.76,2.76,0,0,1,1.15,1.95Z" transform="translate(-0.97 -2.08)"/><path class="cls-4" d="M43.31,19.89l-2.23-2.41A4.64,4.64,0,0,1,37.6,18.9a4,4,0,0,1-2.36-.75A2.92,2.92,0,0,1,34,16.22h8.1V14.08a6.45,6.45,0,0,1,1.2-4,5.61,5.61,0,0,0-.88-.95,7.82,7.82,0,0,0-10.2.21,7,7,0,0,0-2.18,5.41,7.11,7.11,0,0,0,2.14,5.43,7.63,7.63,0,0,0,5.42,2,8.07,8.07,0,0,0,5.7-2.29l0,0Zm-8-8.49a3.63,3.63,0,0,1,2.18-.72,3,3,0,0,1,2,.69,2.86,2.86,0,0,1,1,2H34.12A2.73,2.73,0,0,1,35.27,11.4Z" transform="translate(-0.97 -2.08)"/><path class="cls-4" d="M6.7,10.43v6.46a1.81,1.81,0,0,0,.43,1.29,1.29,1.29,0,0,0,1,.47,2.32,2.32,0,0,0,1.9-1l1.5,2.81a5.79,5.79,0,0,1-3.95,1.71,4.81,4.81,0,0,1-4.94-5.09V10.43H1V7.54H2.65V3.23H6.7V7.54h3.48v2.89Z" transform="translate(-0.97 -2.08)"/><path class="cls-4" d="M17.7,14.18V22h-4V2.08h4V9.15A5.62,5.62,0,0,1,21.78,7.3,5.08,5.08,0,0,1,25.6,8.91a5.92,5.92,0,0,1,1.55,4.28V22h-4V14.07c0-2.21-.82-3.32-2.44-3.32a2.93,2.93,0,0,0-2.1.87A3.41,3.41,0,0,0,17.7,14.18Z" transform="translate(-0.97 -2.08)"/><path class="cls-3" d="M63.79,13.91v8h-4V7.54h4V9.15A5.61,5.61,0,0,1,67.88,7.3,5.05,5.05,0,0,1,71.7,8.91a6,6,0,0,1,1.54,4.28V22h-4V13.8c0-2.21-.81-3.31-2.44-3.31a2.93,2.93,0,0,0-2.1.87A3.38,3.38,0,0,0,63.79,13.91Z" transform="translate(-0.97 -2.08)"/><path class="cls-3" d="M82.65,22.16A6.08,6.08,0,0,1,78.08,20a7.62,7.62,0,0,1-2-5.38,7.31,7.31,0,0,1,2-5.26,6.12,6.12,0,0,1,4.58-2,5.5,5.5,0,0,1,4.28,1.85V2.08h4V22h-4v-1.9A5.2,5.2,0,0,1,82.65,22.16Zm-2.53-7.39a4,4,0,0,0,1,2.85,3.26,3.26,0,0,0,2.44,1.11A3,3,0,0,0,86,17.62a4.19,4.19,0,0,0,1-2.86,4.4,4.4,0,0,0-1-2.92,3,3,0,0,0-2.4-1.17,3.12,3.12,0,0,0-2.43,1.18A4.31,4.31,0,0,0,80.12,14.77Z" transform="translate(-0.97 -2.08)"/><path class="cls-5" d="M43.31,19.89l0,0,0,0h0Z" transform="translate(-0.97 -2.08)"/><path class="cls-6" d="M43.31,19.89l0,0,0,0h0Z" transform="translate(-0.97 -2.08)"/><path class="cls-3" d="M99.21,10.12a.57.57,0,0,0-.66-.5,3.93,3.93,0,0,0-3.15,2A8.61,8.61,0,0,0,94,15.39a8.3,8.3,0,0,0,.39,4A3.66,3.66,0,0,0,98,22a3.48,3.48,0,0,0,2.72-1.33,7.05,7.05,0,0,0,1.46-3.76,8.85,8.85,0,0,0-.49-4.13A4.31,4.31,0,0,0,99.21,10.12Zm1.62,6.64a5.42,5.42,0,0,1-1.15,3.06,2.2,2.2,0,0,1-2.33.75,2.37,2.37,0,0,1-1.67-1.67,6.88,6.88,0,0,1-.31-3.35,7.18,7.18,0,0,1,1.14-3.23,2.81,2.81,0,0,1,1.55-1.26.84.84,0,0,0,.27.13,3.11,3.11,0,0,1,2,2A7.31,7.31,0,0,1,100.83,16.76Z" transform="translate(-0.97 -2.08)"/><path class="cls-3" d="M116.06,16.89a.67.67,0,0,0-.47-.2h-2.85c-1.21,0-2.34,0-3.38,0s-2,0-2.84,0l-.45,0c0-.22,0-.45,0-.71l1.44-1.31c2.46-2.22,3.92-3.59,4.33-4.05a.6.6,0,0,0,.19-.46.59.59,0,0,0-.21-.46.64.64,0,0,0-.47-.19.62.62,0,0,0-.47.22c-.55.58-2,1.9-4.25,4l-.6.56c0-1.46-.14-3.52-.27-6.13s-.23-4.44-.28-5.24a.62.62,0,0,0-.2-.45.72.72,0,0,0-.48-.18.61.61,0,0,0-.46.2.69.69,0,0,0-.19.5c0,.51.11,2.18.28,5.42.16,3.05.26,5.43.31,7.06l-.19.17-.66.65a2.06,2.06,0,0,0-.22.25,1.8,1.8,0,0,0-.1.18.79.79,0,0,0-.07.48.91.91,0,0,0,.47.55l.42.14.39.06c0,1.23,0,2.43,0,3.57a.69.69,0,0,0,.18.46.61.61,0,0,0,.46.2.68.68,0,0,0,.48-.18.61.61,0,0,0,.2-.48c0-1.09,0-2.25,0-3.45a3,3,0,0,0,.38,0c1.84,0,4,0,6.27,0l2.87,0a.63.63,0,0,0,.47-.2.63.63,0,0,0,0-.92Z" transform="translate(-0.97 -2.08)"/></g></g></svg>