<?xml version="1.0" encoding="utf-8"?>
<!-- Generator: Adobe Illustrator 24.0.2, SVG Export Plug-In . SVG Version: 6.00 Build 0)  -->
<!DOCTYPE svg PUBLIC "-//W3C//DTD SVG 1.1//EN" "http://www.w3.org/Graphics/SVG/1.1/DTD/svg11.dtd" [
	<!ENTITY ns_extend "http://ns.adobe.com/Extensibility/1.0/">
	<!ENTITY ns_ai "http://ns.adobe.com/AdobeIllustrator/10.0/">
	<!ENTITY ns_graphs "http://ns.adobe.com/Graphs/1.0/">
	<!ENTITY ns_vars "http://ns.adobe.com/Variables/1.0/">
	<!ENTITY ns_imrep "http://ns.adobe.com/ImageReplacement/1.0/">
	<!ENTITY ns_sfw "http://ns.adobe.com/SaveForWeb/1.0/">
	<!ENTITY ns_custom "http://ns.adobe.com/GenericCustomNamespace/1.0/">
	<!ENTITY ns_adobe_xpath "http://ns.adobe.com/XPath/1.0/">
]>
<svg version="1.1" id="Capa_1" xmlns:x="&ns_extend;" xmlns:i="&ns_ai;" xmlns:graph="&ns_graphs;"
	 xmlns="http://www.w3.org/2000/svg" xmlns:xlink="http://www.w3.org/1999/xlink" x="0px" y="0px" viewBox="0 0 100 100"
	 style="enable-background:new 0 0 100 100;" xml:space="preserve">
<style type="text/css">
	.Sombra_x0020_paralela{fill:none;}
	.Resplandor_x0020_externo_x0020_5_x0020_pt_x002E_{fill:none;}
	.Neón_x0020_azul{fill:none;stroke:#8AACDA;stroke-width:7;stroke-linecap:round;stroke-linejoin:round;}
	.Resalte_x0020_cromado{fill:url(#SVGID_1_);stroke:#FFFFFF;stroke-width:0.3629;stroke-miterlimit:1;}
	.A_x0020_todo_x0020_ritmo_GS{fill:#FFDD00;}
	.Alyssa_GS{fill:#A6D0E4;}
	.st0{fill:#5B3289;}
	.st1{fill:#FFFFFF;}
</style>
<metadata>
	<sfw  xmlns="&ns_sfw;">
		<slices></slices>
		<sliceSourceBounds  bottomLeftOrigin="true" height="98" width="98" x="1" y="-99"></sliceSourceBounds>
	</sfw>
</metadata>
<linearGradient id="SVGID_1_" gradientUnits="userSpaceOnUse" x1="0" y1="0" x2="6.123234e-17" y2="-1">
	<stop  offset="0" style="stop-color:#656565"/>
	<stop  offset="0.618" style="stop-color:#1B1B1B"/>
	<stop  offset="0.6292" style="stop-color:#545454"/>
	<stop  offset="0.9831" style="stop-color:#3E3E3E"/>
</linearGradient>
<circle class="st0" cx="50" cy="50" r="49"/>
<g>
	<g>
		<g>
			<path class="st1" d="M73.7,75.9c-0.4-0.3-0.9-0.6-1.3-1c-5.8-5.8-11.7-11.7-17.5-17.5c-0.1-0.1-0.3-0.3-0.4-0.5
				c-0.4,0.3-0.7,0.5-1,0.8c-3.9,2.7-8.3,3.9-13.1,3.3c-4.8-0.6-8.8-2.9-11.9-6.6c-2.2-2.6-3.5-5.7-4-9.1c-0.1-0.5-0.1-1.1-0.2-1.6
				c0-0.7,0-1.4,0-2.1c0.2-1.3,0.4-2.5,0.7-3.8c0.8-3.3,2.5-6,4.9-8.4c2.5-2.5,5.6-4.1,9-4.8c3.9-0.8,7.6-0.4,11.2,1.1
				c3.9,1.7,6.9,4.4,8.9,8.1C60.8,37.3,61.5,41,61,45c-0.4,3.5-1.8,6.6-4,9.3c0.1,0.2,0.3,0.3,0.4,0.4c5.9,5.9,11.8,11.8,17.8,17.8
				c0.8,0.8,0.9,1.5,0.6,2.3c-0.2,0.6-0.7,0.8-1.3,1.1C74.2,75.9,73.9,75.9,73.7,75.9z M42.7,27.9c-8.1,0-14.8,6.6-14.8,14.7
				c0,8.2,6.6,14.8,14.8,14.8c8.1,0,14.8-6.6,14.8-14.8C57.4,34.5,50.8,27.9,42.7,27.9z"/>
		</g>
	</g>
</g>
</svg>
