<?xml version="1.0" encoding="utf-8"?>
<!-- Generator: Adobe Illustrator 24.0.2, SVG Export Plug-In . SVG Version: 6.00 Build 0)  -->
<!DOCTYPE svg PUBLIC "-//W3C//DTD SVG 1.1//EN" "http://www.w3.org/Graphics/SVG/1.1/DTD/svg11.dtd" [
	<!ENTITY ns_extend "http://ns.adobe.com/Extensibility/1.0/">
	<!ENTITY ns_ai "http://ns.adobe.com/AdobeIllustrator/10.0/">
	<!ENTITY ns_graphs "http://ns.adobe.com/Graphs/1.0/">
	<!ENTITY ns_vars "http://ns.adobe.com/Variables/1.0/">
	<!ENTITY ns_imrep "http://ns.adobe.com/ImageReplacement/1.0/">
	<!ENTITY ns_sfw "http://ns.adobe.com/SaveForWeb/1.0/">
	<!ENTITY ns_custom "http://ns.adobe.com/GenericCustomNamespace/1.0/">
	<!ENTITY ns_adobe_xpath "http://ns.adobe.com/XPath/1.0/">
]>
<svg version="1.1" id="Capa_1" xmlns:x="&ns_extend;" xmlns:i="&ns_ai;" xmlns:graph="&ns_graphs;"
	 xmlns="http://www.w3.org/2000/svg" xmlns:xlink="http://www.w3.org/1999/xlink" x="0px" y="0px" viewBox="0 0 100 100"
	 style="enable-background:new 0 0 100 100;" xml:space="preserve">
<style type="text/css">
	.Sombra_x0020_paralela{fill:none;}
	.Resplandor_x0020_externo_x0020_5_x0020_pt_x002E_{fill:none;}
	.Neón_x0020_azul{fill:none;stroke:#8AACDA;stroke-width:7;stroke-linecap:round;stroke-linejoin:round;}
	.Resalte_x0020_cromado{fill:url(#SVGID_1_);stroke:#FFFFFF;stroke-width:0.3629;stroke-miterlimit:1;}
	.A_x0020_todo_x0020_ritmo_GS{fill:#FFDD00;}
	.Alyssa_GS{fill:#A6D0E4;}
	.st0{fill:#E9B337;}
	.st1{fill:#FFFFFF;}
</style>
<metadata>
	<sfw  xmlns="&ns_sfw;">
		<slices></slices>
		<sliceSourceBounds  bottomLeftOrigin="true" height="94.5" width="94.5" x="3" y="-97.5"></sliceSourceBounds>
	</sfw>
</metadata>
<linearGradient id="SVGID_1_" gradientUnits="userSpaceOnUse" x1="0" y1="0" x2="6.123234e-17" y2="-1">
	<stop  offset="0" style="stop-color:#656565"/>
	<stop  offset="0.618" style="stop-color:#1B1B1B"/>
	<stop  offset="0.6292" style="stop-color:#545454"/>
	<stop  offset="0.9831" style="stop-color:#3E3E3E"/>
</linearGradient>
<circle class="st0" cx="50.2" cy="50.2" r="47.2"/>
<g>
	<g>
		<g>
			<path class="st1" d="M72.5,74.6c-0.4-0.3-0.9-0.5-1.3-0.9c-5.5-5.5-11-11-16.5-16.5c-0.1-0.1-0.3-0.3-0.4-0.5
				c-0.3,0.3-0.7,0.5-1,0.7c-3.7,2.6-7.8,3.6-12.3,3.1c-4.6-0.6-8.3-2.7-11.2-6.2c-2.1-2.5-3.3-5.4-3.8-8.6c-0.1-0.5-0.1-1-0.2-1.5
				c0-0.7,0-1.3,0-2c0.2-1.2,0.3-2.4,0.6-3.5c0.8-3.1,2.4-5.7,4.6-7.9c2.4-2.3,5.2-3.9,8.5-4.5c3.6-0.8,7.2-0.4,10.6,1.1
				c3.7,1.6,6.5,4.2,8.4,7.7c1.8,3.3,2.4,6.8,2,10.5c-0.4,3.3-1.7,6.2-3.8,8.8c0.1,0.1,0.3,0.3,0.4,0.4c5.6,5.6,11.1,11.1,16.7,16.7
				c0.7,0.7,0.9,1.4,0.6,2.1c-0.2,0.5-0.7,0.8-1.2,1C73,74.6,72.8,74.6,72.5,74.6z M43.3,29.4c-7.6,0-13.9,6.2-13.9,13.9
				c0,7.7,6.2,13.9,13.9,13.9c7.6,0,13.9-6.3,13.9-13.9C57.2,35.6,51,29.4,43.3,29.4z"/>
		</g>
	</g>
</g>
</svg>
