<?xml version="1.0" encoding="utf-8"?>
<!-- Generator: Adobe Illustrator 24.0.2, SVG Export Plug-In . SVG Version: 6.00 Build 0)  -->
<!DOCTYPE svg PUBLIC "-//W3C//DTD SVG 1.1//EN" "http://www.w3.org/Graphics/SVG/1.1/DTD/svg11.dtd" [
	<!ENTITY ns_extend "http://ns.adobe.com/Extensibility/1.0/">
	<!ENTITY ns_ai "http://ns.adobe.com/AdobeIllustrator/10.0/">
	<!ENTITY ns_graphs "http://ns.adobe.com/Graphs/1.0/">
	<!ENTITY ns_vars "http://ns.adobe.com/Variables/1.0/">
	<!ENTITY ns_imrep "http://ns.adobe.com/ImageReplacement/1.0/">
	<!ENTITY ns_sfw "http://ns.adobe.com/SaveForWeb/1.0/">
	<!ENTITY ns_custom "http://ns.adobe.com/GenericCustomNamespace/1.0/">
	<!ENTITY ns_adobe_xpath "http://ns.adobe.com/XPath/1.0/">
]>
<svg version="1.1" id="Capa_1" xmlns:x="&ns_extend;" xmlns:i="&ns_ai;" xmlns:graph="&ns_graphs;"
	 xmlns="http://www.w3.org/2000/svg" xmlns:xlink="http://www.w3.org/1999/xlink" x="0px" y="0px" viewBox="0 0 100 100"
	 style="enable-background:new 0 0 100 100;" xml:space="preserve">
<style type="text/css">
	.Sombra_x0020_paralela{fill:none;}
	.Resplandor_x0020_externo_x0020_5_x0020_pt_x002E_{fill:none;}
	.Neón_x0020_azul{fill:none;stroke:#8AACDA;stroke-width:7;stroke-linecap:round;stroke-linejoin:round;}
	.Resalte_x0020_cromado{fill:url(#SVGID_1_);stroke:#FFFFFF;stroke-width:0.3629;stroke-miterlimit:1;}
	.A_x0020_todo_x0020_ritmo_GS{fill:#FFDD00;}
	.Alyssa_GS{fill:#A6D0E4;}
	.st0{fill:#253238;}
	.st1{opacity:0.5;fill:#253238;}
</style>
<metadata>
	<sfw  xmlns="&ns_sfw;">
		<slices></slices>
		<sliceSourceBounds  bottomLeftOrigin="true" height="97.8" width="98" x="1" y="-98.8"></sliceSourceBounds>
	</sfw>
</metadata>
<linearGradient id="SVGID_1_" gradientUnits="userSpaceOnUse" x1="0" y1="0" x2="6.123234e-17" y2="-1">
	<stop  offset="0" style="stop-color:#656565"/>
	<stop  offset="0.618" style="stop-color:#1B1B1B"/>
	<stop  offset="0.6292" style="stop-color:#545454"/>
	<stop  offset="0.9831" style="stop-color:#3E3E3E"/>
</linearGradient>
<g>
	<g>
		<path class="st0" d="M1,47c0.3-1.9,0.4-3.8,0.8-5.6C4.7,25.9,13.2,14.3,27,6.7c7.8-4.3,16.4-6.3,25.3-5.7
			c20.3,1.5,35,11.6,42.8,30.4c7,17,4.6,33.3-6.3,48.1c-7.4,10.1-17.6,16-29.9,18.4c-2,0.4-4,0.6-6,0.8c-1.9,0-3.8,0-5.7,0
			c-0.2-0.1-0.5-0.1-0.7-0.2c-6-0.4-11.8-1.8-17.1-4.5C14.2,86.7,5,74.8,1.8,58.4c-0.4-1.9-0.5-3.8-0.8-5.6C1,50.8,1,48.9,1,47z
			 M17.3,81.7c0-0.5,0-0.8,0-1.1c0-3,0-5.9,0-8.9c0-2.5,0.3-5,1.1-7.3c3.2-9,11-14.4,20.5-14.5c7.3,0,14.6,0,22,0
			c3.5,0,6.9,0.7,10,2.3c6.9,3.7,10.9,9.5,11.5,17.4c0.3,3.6,0.1,7.3,0.1,10.9c0,0.3,0,0.7,0.1,1.1c15.4-15.2,18.6-42.9,1.2-62.3
			C66.3-0.2,35.8-0.9,17.6,17.6C-1,36.4,0.8,65.1,17.3,81.7z M49.9,53.1c-3.8,0-7.5,0-11.3,0c-9.8,0.1-17.5,7.3-18,17
			c-0.2,4.7-0.1,9.4-0.1,14.1c0,0.3,0.2,0.7,0.5,0.9C31.8,93.7,44,97,57.5,94.8c7.9-1.3,15-4.6,21.2-9.6c0.3-0.2,0.5-0.8,0.5-1.2
			c0-4.1,0.1-8.3,0-12.4c0-1.5-0.1-2.9-0.5-4.4c-2-8.5-9-14.1-17.8-14.1C57.3,53.1,53.6,53.1,49.9,53.1z"/>
		<path class="st1" d="M49.9,53.1c3.7,0,7.4,0,11.1,0c8.8,0,15.8,5.6,17.8,14.1c0.3,1.4,0.4,2.9,0.5,4.4c0.1,4.1,0,8.3,0,12.4
			c0,0.4-0.2,1-0.5,1.2c-6.2,5.1-13.3,8.4-21.2,9.6C44,97,31.8,93.7,21.1,85.2c-0.3-0.2-0.5-0.6-0.5-0.9c0-4.7-0.1-9.4,0.1-14.1
			c0.5-9.7,8.2-16.9,18-17C42.4,53.1,46.1,53.1,49.9,53.1z"/>
		<path class="st0" d="M49.9,14c9,0,16.2,7.3,16.3,16.3c0,9-7.3,16.4-16.3,16.3c-9,0-16.2-7.4-16.2-16.3C33.6,21.3,40.9,14,49.9,14z
			 M62.9,30.3c0-7.2-5.9-13.1-13-13.1c-7.2,0-13,5.8-13,13c0,7.2,5.8,13.1,13,13.1C57,43.4,62.9,37.5,62.9,30.3z"/>
		<path class="st1" d="M62.9,30.3c0,7.2-5.9,13.1-13.1,13c-7.2,0-13-5.9-13-13.1c0-7.2,5.8-13,13-13C57.1,17.2,62.9,23.1,62.9,30.3z
			"/>
	</g>
</g>
</svg>
