<?xml version="1.0" encoding="utf-8"?>
<!-- Generator: Adobe Illustrator 24.0.2, SVG Export Plug-In . SVG Version: 6.00 Build 0)  -->
<!DOCTYPE svg PUBLIC "-//W3C//DTD SVG 1.1//EN" "http://www.w3.org/Graphics/SVG/1.1/DTD/svg11.dtd" [
	<!ENTITY ns_extend "http://ns.adobe.com/Extensibility/1.0/">
	<!ENTITY ns_ai "http://ns.adobe.com/AdobeIllustrator/10.0/">
	<!ENTITY ns_graphs "http://ns.adobe.com/Graphs/1.0/">
	<!ENTITY ns_vars "http://ns.adobe.com/Variables/1.0/">
	<!ENTITY ns_imrep "http://ns.adobe.com/ImageReplacement/1.0/">
	<!ENTITY ns_sfw "http://ns.adobe.com/SaveForWeb/1.0/">
	<!ENTITY ns_custom "http://ns.adobe.com/GenericCustomNamespace/1.0/">
	<!ENTITY ns_adobe_xpath "http://ns.adobe.com/XPath/1.0/">
]>
<svg version="1.1" id="Capa_1" xmlns:x="&ns_extend;" xmlns:i="&ns_ai;" xmlns:graph="&ns_graphs;"
	 xmlns="http://www.w3.org/2000/svg" xmlns:xlink="http://www.w3.org/1999/xlink" x="0px" y="0px" viewBox="0 0 100 100"
	 style="enable-background:new 0 0 100 100;" xml:space="preserve">
<style type="text/css">
	.Sombra_x0020_paralela{fill:none;}
	.Resplandor_x0020_externo_x0020_5_x0020_pt_x002E_{fill:none;}
	.Neón_x0020_azul{fill:none;stroke:#8AACDA;stroke-width:7;stroke-linecap:round;stroke-linejoin:round;}
	.Resalte_x0020_cromado{fill:url(#SVGID_1_);stroke:#FFFFFF;stroke-width:0.3629;stroke-miterlimit:1;}
	.A_x0020_todo_x0020_ritmo_GS{fill:#FFDD00;}
	.Alyssa_GS{fill:#A6D0E4;}
	.st0{fill:#FFFFFF;}
	.st1{fill:#5B3289;}
</style>
<metadata>
	<sfw  xmlns="&ns_sfw;">
		<slices></slices>
		<sliceSourceBounds  bottomLeftOrigin="true" height="95.4" width="95.2" x="2.8" y="-98"></sliceSourceBounds>
	</sfw>
</metadata>
<linearGradient id="SVGID_1_" gradientUnits="userSpaceOnUse" x1="0" y1="0" x2="6.123234e-17" y2="-1">
	<stop  offset="0" style="stop-color:#656565"/>
	<stop  offset="0.618" style="stop-color:#1B1B1B"/>
	<stop  offset="0.6292" style="stop-color:#545454"/>
	<stop  offset="0.9831" style="stop-color:#3E3E3E"/>
</linearGradient>
<g>
	<path class="st0" d="M2.8,53.2c0-2,0-4,0-6c0-0.2,0.1-0.5,0.1-0.8c0.3-2.1,0.5-4.3,1-6.5c5.7-26.1,32.2-42.6,58-36
		c24.7,6.3,40.1,30.4,35.3,55.5c-3.8,19.2-19.2,34.4-38.5,37.7c-1.7,0.3-3.5,0.5-5.2,0.8c-2,0-4,0-6,0c-0.2-0.1-0.4-0.1-0.6-0.2
		c-4.1-0.3-8-1.1-11.8-2.4C17.8,89,7.3,76.6,3.6,58.5C3.2,56.8,3,55.1,2.8,53.2z M49.2,67.8c4.5-0.2,7.8-0.3,11.1-0.5
		c2.3-0.1,4.6-0.2,6.9-0.8c3.4-0.8,5.7-2.7,6.3-6.5c1-6.2,1.1-12.4,0.2-18.6c-0.3-1.7-0.5-3.6-1.7-5c-1.6-1.6-3.6-2.6-5.8-2.9
		c-8.3-0.9-16.6-1.1-25-0.5c-2.4,0.2-4.9,0.3-7.2,0.8c-3.1,0.7-5.6,2.3-6.2,5.8c-1.3,6.8-1.3,13.4-0.2,20.2c0.3,1.7,0.8,3.4,2.1,4.6
		c1.5,1.4,3.3,2.2,5.2,2.3C40,67.2,45.2,67.5,49.2,67.8z"/>
	<path class="st1" d="M49.2,67.8c-4-0.3-9.2-0.6-14.4-1c-2-0.2-3.8-1.1-5.2-2.3c-1.4-1.3-1.8-2.8-2.1-4.6
		c-1.1-6.8-1.1-13.4,0.2-20.2c0.6-3.5,3.1-5.1,6.2-5.8c2.4-0.5,4.8-0.6,7.2-0.8c8.3-0.6,16.7-0.4,25,0.5c2.2,0.3,4.2,1.2,5.8,2.9
		c1.4,1.4,1.5,3.2,1.7,5c0.9,6.2,0.8,12.5-0.2,18.6c-0.6,3.8-2.9,5.7-6.3,6.5c-2.2,0.5-4.5,0.6-6.9,0.8C57,67.5,53.7,67.6,49.2,67.8
		z M44.8,41.2c0,6.2,0,12.1,0,18.2c4.9-3.1,9.9-6.1,14.8-9.1C54.6,47.2,49.8,44.2,44.8,41.2z"/>
	<path class="st0" d="M44.8,41.2c4.9,3.1,9.9,6,14.8,9.1c-4.9,3.1-9.9,6.1-14.8,9.1C44.8,53.2,44.8,47.3,44.8,41.2z"/>
</g>
</svg>
